<svg id="Layer_2" data-name="Layer 2" xmlns="http://www.w3.org/2000/svg" xmlns:xlink="http://www.w3.org/1999/xlink" viewBox="0 0 150 80"><defs><linearGradient id="green_blue_gradient" x1="68.37" y1="22.41" x2="71.9" y2="22.41" gradientUnits="userSpaceOnUse"><stop offset="0" stop-color="#63b773"/><stop offset="1" stop-color="#009fdd"/></linearGradient><linearGradient id="green_blue_gradient-2" x1="73.23" y1="22.41" x2="76.77" y2="22.41" xlink:href="#green_blue_gradient"/><linearGradient id="green_blue_gradient-3" x1="78.09" y1="22.41" x2="81.63" y2="22.41" xlink:href="#green_blue_gradient"/><linearGradient id="linear-gradient" x1="68.37" y1="22.41" x2="81.63" y2="22.41" gradientUnits="userSpaceOnUse"><stop offset="0" stop-color="#009fdd"/><stop offset="1" stop-color="#63b773"/></linearGradient></defs><path d="M70.45,33.87l.52.2Z" fill="#fff"/><path d="M71,34.07l.71.22Z" fill="#fff"/><circle cx="70.14" cy="22.41" r="1.77" fill="#fff"/><path d="M71.68,34.29l.37.09Z" fill="#fff"/><circle cx="75" cy="22.41" r="1.77" fill="#fff"/><circle cx="79.86" cy="22.41" r="1.77" fill="#fff"/><path d="M86.68,26.36a11.37,11.37,0,0,0,.43-1.62,10.71,10.71,0,0,1-.43,1.62Z" fill="#fff"/><path d="M87.34,22.56h0a13,13,0,0,1-.17,1.87s0,.06,0,.1a1.29,1.29,0,0,1,0,.19h0a11.37,11.37,0,0,1-.43,1.62h0l1.66,3.75-4.07.44a12.4,12.4,0,0,1-2.62,2.25l-.26.15-.08,0v0l8.93-1.82ZM76.44,8.33a2,2,0,0,0,.62-1.46,2.06,2.06,0,0,0-4.12,0,2,2,0,0,0,.62,1.46,6.43,6.43,0,0,0-4.31,3.16l.27-.13c.22-.12.45-.22.68-.32a12.28,12.28,0,0,1,7.73-.61c.3.07.59.15.88.24l.15.05.16.06.12,0,.59.23.11,0c.27.12.54.25.8.39A6.37,6.37,0,0,0,76.44,8.33Zm13.8,5.28a2.06,2.06,0,0,0-2.81-.75,2,2,0,0,0-1,1.26A6.43,6.43,0,0,0,81.58,12a12.28,12.28,0,0,1,4,4l.13.23.09.16a.54.54,0,0,1,.07.13l.06.1c.07.14.15.28.22.43l.06.13c0,.1.09.19.13.28s.11.28.17.41,0,.1,0,.14a12.11,12.11,0,0,1,.8,3.9,6.41,6.41,0,0,0,.58-5.3,2.06,2.06,0,0,0,2.33-3Zm-9.5,19.71-.13.07-.1.06-.3.14-.27.12-.16.07-.12,0a12.32,12.32,0,0,1-6.84.72l-.14,0-.21,0-.11,0-.15,0-.16,0-.37-.09L71,34.07l-.52-.2-.18-.07-.17-.07-.45-.21-.13-.06-.13-.07-.14-.07a6.4,6.4,0,0,0,4.31,3.16A2.05,2.05,0,0,0,75,40a2.06,2.06,0,0,0,2.06-2.06,2,2,0,0,0-.62-1.46A6.37,6.37,0,0,0,80.74,33.32ZM64.32,28.57l-.09-.15-.07-.13a.91.91,0,0,1-.07-.14,10.33,10.33,0,0,1-.57-1.22,12.17,12.17,0,0,1-.85-4,6.42,6.42,0,0,0-.58,5.3,2.06,2.06,0,0,0-2.33,3,2.06,2.06,0,0,0,2.81.76,2,2,0,0,0,1-1.26,6.38,6.38,0,0,0,4.89,2.14A12.18,12.18,0,0,1,64.32,28.57Zm-.79-14.45a2,2,0,0,0-1-1.26,2.05,2.05,0,1,0-2,3.56,2,2,0,0,0,1.57.2,6.4,6.4,0,0,0,.58,5.3,12.79,12.79,0,0,1,.22-1.85l.06-.3,0-.14c0-.15.07-.3.11-.45s0-.11,0-.16l.06-.21s0-.09,0-.14a.56.56,0,0,0,0-.12.69.69,0,0,1,0-.1c0-.05,0-.09,0-.14l.17-.44a.61.61,0,0,1,0-.12A12.26,12.26,0,0,1,68.42,12,6.42,6.42,0,0,0,63.53,14.12Z" fill="#4b3521"/><circle cx="70.14" cy="22.41" r="1.77" fill="url(#green_blue_gradient)"/><circle cx="75" cy="22.41" r="1.77" fill="url(#green_blue_gradient-2)"/><circle cx="79.86" cy="22.41" r="1.77" fill="url(#green_blue_gradient-3)"/><path d="M70.14,20.64a1.77,1.77,0,1,0,1.76,1.77A1.77,1.77,0,0,0,70.14,20.64Zm9.72,0a1.77,1.77,0,1,0,1.77,1.77A1.77,1.77,0,0,0,79.86,20.64Zm-4.86,0a1.77,1.77,0,1,0,1.77,1.77A1.77,1.77,0,0,0,75,20.64Z" fill="url(#linear-gradient)"/><path d="M86.68,26.36h0a11.37,11.37,0,0,0,.43-1.62h0a1.29,1.29,0,0,0,0-.19l0-.1A12.6,12.6,0,0,0,86.53,18s0-.09,0-.14-.11-.27-.17-.41-.09-.18-.13-.28l-.06-.13c-.07-.15-.15-.29-.22-.43l-.06-.1a.54.54,0,0,0-.07-.13L85.55,16a12.46,12.46,0,0,0-5.61-4.91l-.11,0-.59-.23-.12,0L79,10.72l-.15-.05c-.29-.09-.58-.17-.88-.24A12.26,12.26,0,0,0,70.2,11c-.23.1-.46.2-.68.32a12.35,12.35,0,0,0-5.94,6.39.61.61,0,0,0,0,.12l-.17.44c0,.05,0,.09,0,.14a.69.69,0,0,0,0,.1.56.56,0,0,1,0,.12s0,.09,0,.14l-.06.21c0,.05,0,.11,0,.16s-.08.3-.11.45l0,.14-.06.3a12.06,12.06,0,0,0-.22,2.34,11.89,11.89,0,0,0,1.42,5.74l.07.14.07.13a12.36,12.36,0,0,0,5.16,5l.13.07.13.06.45.21.17.07.18.07.52.2.71.22.37.09.16,0,.15,0,.11,0,.21,0,.14,0a12.9,12.9,0,0,0,2.18.19,12.25,12.25,0,0,0,4.66-.91l.12,0,.16-.07.27-.12.3-.14.1-.06.13-.07a6.84,6.84,0,0,0,.65-.37l.26-.15.27-.19a11.94,11.94,0,0,0,2.35-2.06l4.07-.44ZM70.14,24.18a1.77,1.77,0,1,1,1.76-1.77A1.77,1.77,0,0,1,70.14,24.18Zm4.86,0a1.77,1.77,0,1,1,1.77-1.77A1.77,1.77,0,0,1,75,24.18Zm4.86,0a1.77,1.77,0,1,1,1.77-1.77A1.78,1.78,0,0,1,79.86,24.18Z" fill="#fff"/><path d="M21.34,45.78l1.18,3,1.23-3.24,1.18,3.24,1.25-3h.74l-2,4.81-1.17-3.2-1.21,3.2L20.6,45.78Z" fill="#fff"/><path d="M30,46.42H28.16v1.09h1.76v.64H28.16v1.51H30v.64h-2.5V45.78H30Z" fill="#fff"/><path d="M35.38,49.21H33.45l-.51,1.09h-.73l2.23-4.8,2.16,4.8h-.74Zm-.28-.65L34.43,47l-.7,1.53Z" fill="#fff"/><path d="M38.7,48.38l1.4,1.92h-.83L38,48.45h-.12V50.3h-.68V45.78H38a1.94,1.94,0,0,1,1.29.34,1.22,1.22,0,0,1,.44,1,1.28,1.28,0,0,1-.27.82A1.3,1.3,0,0,1,38.7,48.38Zm-.85-.52h.22c.64,0,1-.25,1-.74s-.32-.7-.95-.7h-.24Z" fill="#fff"/><path d="M43.28,46.42H41.46v1.09h1.76v.64H41.46v1.51h1.82v.64h-2.5V45.78h2.5Z" fill="#fff"/><path d="M48.68,49.21H46.75l-.51,1.09h-.73l2.24-4.8,2.15,4.8h-.74Zm-.28-.65L47.73,47,47,48.56Z" fill="#fff"/><path d="M52.32,50.3V45.47l3.3,3.45V45.78h.68v4.8L53,47.14V50.3Z" fill="#fff"/><path d="M57.2,48a2.24,2.24,0,0,1,.7-1.64,2.31,2.31,0,0,1,1.68-.68,2.36,2.36,0,0,1,2.35,2.35,2.19,2.19,0,0,1-.7,1.65,2.31,2.31,0,0,1-1.69.69A2.35,2.35,0,0,1,58,49.78,2.23,2.23,0,0,1,57.2,48Zm.69,0a1.64,1.64,0,0,0,.5,1.23,1.61,1.61,0,0,0,1.16.49,1.64,1.64,0,0,0,1.2-.49,1.76,1.76,0,0,0,0-2.43A1.68,1.68,0,0,0,57.89,48Z" fill="#fff"/><path d="M62.79,50.3V45.47l3.3,3.45V45.78h.68v4.8l-3.3-3.44V50.3Z" fill="#fff"/><path d="M67.31,48.57h1.31v.57H67.31Z" fill="#fff"/><path d="M69.84,48.47V50.3h-.68V45.78h.77a3.61,3.61,0,0,1,.86.08,1.1,1.1,0,0,1,.52.3,1.27,1.27,0,0,1,.39,1,1.23,1.23,0,0,1-.42,1,1.61,1.61,0,0,1-1.12.37Zm0-.64h.26c.63,0,.94-.24.94-.72s-.32-.7-1-.7h-.23Z" fill="#fff"/><path d="M73.93,48.38l1.4,1.92H74.5l-1.29-1.85h-.13V50.3H72.4V45.78h.8a2,2,0,0,1,1.3.34,1.25,1.25,0,0,1,.44,1,1.29,1.29,0,0,1-.28.82A1.27,1.27,0,0,1,73.93,48.38Zm-.85-.52h.22c.65,0,1-.25,1-.74s-.31-.7-.94-.7h-.25Z" fill="#fff"/><path d="M75.69,48a2.2,2.2,0,0,1,.7-1.64,2.36,2.36,0,0,1,4,1.67,2.22,2.22,0,0,1-.69,1.65,2.33,2.33,0,0,1-1.69.69,2.37,2.37,0,0,1-1.58-.61A2.22,2.22,0,0,1,75.69,48Zm.68,0a1.61,1.61,0,0,0,.51,1.23,1.59,1.59,0,0,0,1.16.49,1.67,1.67,0,0,0,1.2-.49A1.72,1.72,0,0,0,79.73,48a1.68,1.68,0,0,0-.49-1.21,1.69,1.69,0,0,0-2.38,0A1.64,1.64,0,0,0,76.37,48Z" fill="#fff"/><path d="M83.53,46.42H82v1.09h1.52v.64H82V50.3h-.69V45.78h2.26Z" fill="#fff"/><path d="M85,45.78V50.3h-.68V45.78Z" fill="#fff"/><path d="M87.34,46.42V50.3h-.68V46.42h-1v-.64h2.76v.64Z" fill="#fff"/><path d="M94.18,46v.81A1.87,1.87,0,0,0,93,46.34a1.54,1.54,0,0,0-1.18.5,1.69,1.69,0,0,0-.48,1.22,1.66,1.66,0,0,0,.48,1.2,1.61,1.61,0,0,0,1.18.49,1.41,1.41,0,0,0,.61-.12,1.4,1.4,0,0,0,.29-.16,2,2,0,0,0,.32-.24v.82a2.38,2.38,0,0,1-1.23.34,2.32,2.32,0,0,1-2.34-2.33,2.33,2.33,0,0,1,.57-1.54A2.29,2.29,0,0,1,93,45.69,2.32,2.32,0,0,1,94.18,46Z" fill="#fff"/><path d="M94.79,48a2.2,2.2,0,0,1,.7-1.64,2.37,2.37,0,0,1,4,1.67,2.23,2.23,0,0,1-.7,1.65,2.33,2.33,0,0,1-1.69.69,2.37,2.37,0,0,1-1.58-.61A2.22,2.22,0,0,1,94.79,48Zm.69,0a1.61,1.61,0,0,0,.5,1.23,1.59,1.59,0,0,0,1.16.49,1.67,1.67,0,0,0,1.2-.49A1.72,1.72,0,0,0,98.83,48a1.64,1.64,0,0,0-.49-1.21,1.58,1.58,0,0,0-1.19-.49,1.61,1.61,0,0,0-1.19.49A1.63,1.63,0,0,0,95.48,48Z" fill="#fff"/><path d="M100.22,50.3l1-4.86L102.72,49l1.61-3.52.85,4.86h-.7l-.43-2.73-1.34,2.94-1.3-2.94-.49,2.73Z" fill="#fff"/><path d="M106,50.3l1-4.86L108.49,49l1.61-3.52L111,50.3h-.7l-.43-2.73-1.34,2.94-1.3-2.94-.49,2.73Z" fill="#fff"/><path d="M112.59,45.78v2.73a1.57,1.57,0,0,0,.19.85,1,1,0,0,0,1.61,0,1.55,1.55,0,0,0,.19-.85V45.78h.68v2.91a1.62,1.62,0,0,1-.45,1.18,1.7,1.7,0,0,1-2.45,0,1.62,1.62,0,0,1-.45-1.18V45.78Z" fill="#fff"/><path d="M116.34,50.3V45.47l3.3,3.45V45.78h.69v4.8L117,47.14V50.3Z" fill="#fff"/><path d="M122.09,45.78V50.3h-.68V45.78Z" fill="#fff"/><path d="M124.43,46.42V50.3h-.69V46.42h-1v-.64h2.76v.64Z" fill="#fff"/><path d="M127.28,48.35l-1.48-2.57h.79l1,1.81,1-1.81h.78L128,48.35V50.3h-.68Z" fill="#fff"/><path d="M18.7,57.5V53h.95a3.38,3.38,0,0,1,1.07.14,1.86,1.86,0,0,1,.77.44,2.17,2.17,0,0,1,.7,1.68,2.13,2.13,0,0,1-.73,1.69,2.31,2.31,0,0,1-.76.45,3.7,3.7,0,0,1-1.07.12Zm.68-.64h.31a2.73,2.73,0,0,0,.76-.09A1.66,1.66,0,0,0,21,54a1.87,1.87,0,0,0-1.32-.42h-.31Z" fill="#fff"/><path d="M25.55,53.62H23.73v1.09H25.5v.64H23.73v1.51h1.82v.64h-2.5V53h2.5Z" fill="#fff"/><path d="M26.44,57.5V53h.95a3.4,3.4,0,0,1,1.08.14,1.86,1.86,0,0,1,.77.44,2.17,2.17,0,0,1,.7,1.68,2.13,2.13,0,0,1-.73,1.69,2.31,2.31,0,0,1-.76.45,3.7,3.7,0,0,1-1.07.12Zm.69-.64h.31a2.73,2.73,0,0,0,.76-.09A1.67,1.67,0,0,0,28.76,54a1.87,1.87,0,0,0-1.32-.42h-.31Z" fill="#fff"/><path d="M31.48,53V57.5H30.8V53Z" fill="#fff"/><path d="M35.91,53.22V54a1.87,1.87,0,0,0-1.22-.49,1.54,1.54,0,0,0-1.18.5A1.69,1.69,0,0,0,33,55.26a1.66,1.66,0,0,0,.48,1.2,1.62,1.62,0,0,0,1.18.49,1.38,1.38,0,0,0,.61-.12,1.46,1.46,0,0,0,.3-.16,2,2,0,0,0,.31-.24v.83a2.47,2.47,0,0,1-1.23.33A2.27,2.27,0,0,1,33,56.91a2.23,2.23,0,0,1-.68-1.65,2.33,2.33,0,0,1,.57-1.54,2.28,2.28,0,0,1,1.82-.83A2.31,2.31,0,0,1,35.91,53.22Z" fill="#fff"/><path d="M39.54,56.41H37.6l-.5,1.09h-.74l2.24-4.8,2.16,4.8H40Zm-.28-.65-.67-1.53-.7,1.53Z" fill="#fff"/><path d="M42.32,53.62V57.5h-.68V53.62h-1V53h2.76v.64Z" fill="#fff"/><path d="M46.47,53.62H44.65v1.09h1.76v.64H44.65v1.51h1.82v.64H44V53h2.5Z" fill="#fff"/><path d="M47.36,57.5V53h1a3.4,3.4,0,0,1,1.08.14,1.93,1.93,0,0,1,.77.44,2.17,2.17,0,0,1,.7,1.68,2.13,2.13,0,0,1-.73,1.69,2.25,2.25,0,0,1-.77.45,3.63,3.63,0,0,1-1.06.12Zm.69-.64h.3a2.8,2.8,0,0,0,.77-.09,1.65,1.65,0,0,0,.55-.33,1.58,1.58,0,0,0,.5-1.2,1.53,1.53,0,0,0-.5-1.2,1.84,1.84,0,0,0-1.32-.42h-.3Z" fill="#fff"/><path d="M54.82,53.62V57.5h-.68V53.62h-1V53h2.76v.64Z" fill="#fff"/><path d="M56.1,55.22a2.22,2.22,0,0,1,.7-1.64,2.36,2.36,0,0,1,4,1.67,2.22,2.22,0,0,1-.69,1.65,2.33,2.33,0,0,1-1.69.69A2.37,2.37,0,0,1,56.86,57,2.22,2.22,0,0,1,56.1,55.22Zm.68,0a1.61,1.61,0,0,0,.51,1.23,1.59,1.59,0,0,0,1.16.49,1.67,1.67,0,0,0,1.2-.49,1.72,1.72,0,0,0,.49-1.22A1.68,1.68,0,0,0,59.65,54a1.69,1.69,0,0,0-2.38,0A1.64,1.64,0,0,0,56.78,55.23Z" fill="#fff"/><path d="M66.19,56.41H64.25l-.5,1.09H63l2.23-4.8,2.16,4.8h-.74Zm-.28-.65-.67-1.53-.7,1.53Z" fill="#fff"/><path d="M68.66,53V57.5H68V53Z" fill="#fff"/><path d="M73.6,52.51l.55.24-2.59,6L71,58.5Z" fill="#fff"/><path d="M76.4,57.5l.95-4.86,1.56,3.52,1.6-3.52.86,4.86h-.7l-.44-2.73-1.34,2.94-1.3-2.94-.48,2.73Z" fill="#fff"/><path d="M83,53v3.88h1.33v.64h-2V53Z" fill="#fff"/><path d="M87.52,55.67V57.5h-.68V53h.77a3.61,3.61,0,0,1,.86.08,1.1,1.1,0,0,1,.52.3,1.27,1.27,0,0,1,.39,1,1.23,1.23,0,0,1-.42,1,1.61,1.61,0,0,1-1.12.37Zm0-.64h.26c.62,0,.94-.24.94-.72s-.33-.7-1-.7h-.23Z" fill="#fff"/><path d="M91.61,55.58,93,57.5h-.83l-1.29-1.85h-.13V57.5h-.68V53h.8a1.94,1.94,0,0,1,1.29.34,1.22,1.22,0,0,1,.44,1,1.28,1.28,0,0,1-.27.82A1.27,1.27,0,0,1,91.61,55.58Zm-.85-.52H91c.65,0,1-.25,1-.74s-.32-.7-.94-.7h-.25Z" fill="#fff"/><path d="M96.35,56.41H94.41l-.5,1.09h-.74l2.24-4.8,2.16,4.8h-.75Zm-.28-.65-.67-1.53-.7,1.53Z" fill="#fff"/><path d="M101.27,53.22V54a1.89,1.89,0,0,0-1.23-.49,1.54,1.54,0,0,0-1.17.5,1.69,1.69,0,0,0-.48,1.22,1.66,1.66,0,0,0,.48,1.2,1.61,1.61,0,0,0,1.18.49,1.41,1.41,0,0,0,.61-.12,1.71,1.71,0,0,0,.29-.16,2,2,0,0,0,.32-.24v.83a2.47,2.47,0,0,1-1.23.33,2.32,2.32,0,0,1-2.34-2.33,2.33,2.33,0,0,1,.57-1.54,2.29,2.29,0,0,1,1.82-.83A2.32,2.32,0,0,1,101.27,53.22Z" fill="#fff"/><path d="M103.38,53.62V57.5h-.68V53.62h-1V53h2.76v.64Z" fill="#fff"/><path d="M105.71,53V57.5H105V53Z" fill="#fff"/><path d="M108,53.62V57.5h-.68V53.62h-1V53h2.76v.64Z" fill="#fff"/><path d="M110.37,53V57.5h-.68V53Z" fill="#fff"/><path d="M111.23,55.22a2.26,2.26,0,0,1,.7-1.64,2.31,2.31,0,0,1,1.68-.68A2.36,2.36,0,0,1,116,55.25a2.19,2.19,0,0,1-.7,1.65,2.31,2.31,0,0,1-1.69.69A2.35,2.35,0,0,1,112,57,2.23,2.23,0,0,1,111.23,55.22Zm.69,0a1.64,1.64,0,0,0,.5,1.23,1.61,1.61,0,0,0,1.16.49,1.64,1.64,0,0,0,1.2-.49,1.76,1.76,0,0,0,0-2.43,1.68,1.68,0,0,0-2.87,1.2Z" fill="#fff"/><path d="M116.82,57.5V52.67l3.3,3.45V53h.68v4.8l-3.3-3.44V57.5Z" fill="#fff"/><path d="M124.38,53.62h-1.81v1.09h1.76v.64h-1.76v1.51h1.81v.64h-2.5V53h2.5Z" fill="#fff"/><path d="M126.81,55.58l1.4,1.92h-.83l-1.3-1.85H126V57.5h-.68V53h.8a2,2,0,0,1,1.29.34,1.22,1.22,0,0,1,.44,1,1.28,1.28,0,0,1-.27.82A1.3,1.3,0,0,1,126.81,55.58Zm-.85-.52h.22c.64,0,1-.25,1-.74s-.32-.7-1-.7H126Z" fill="#fff"/><path d="M131.45,53.65l-.56.33a1,1,0,0,0-.29-.35.74.74,0,0,0-.38-.09.67.67,0,0,0-.47.16.48.48,0,0,0-.19.4c0,.22.16.4.49.53l.45.18a1.89,1.89,0,0,1,.81.55,1.2,1.2,0,0,1,.25.78,1.39,1.39,0,0,1-.41,1,1.45,1.45,0,0,1-1,.41,1.39,1.39,0,0,1-1-.35,1.6,1.6,0,0,1-.48-1l.7-.16a1.12,1.12,0,0,0,.16.55.71.71,0,0,0,.61.3.72.72,0,0,0,.54-.22.73.73,0,0,0,.21-.54.86.86,0,0,0,0-.24.59.59,0,0,0-.12-.2.9.9,0,0,0-.2-.18l-.29-.15-.44-.18a1.26,1.26,0,0,1-.92-1.15,1.09,1.09,0,0,1,.39-.85,1.41,1.41,0,0,1,1-.35A1.37,1.37,0,0,1,131.45,53.65Z" fill="#fff"/><path d="M24.15,60.82V64.7h-.68V60.82h-1v-.64h2.76v.64Z" fill="#fff"/><path d="M26.78,62h1.95V60.18h.69V64.7h-.69V62.59H26.78V64.7H26.1V60.18h.68Z" fill="#fff"/><path d="M33.46,63.61H31.52L31,64.7h-.74l2.24-4.8,2.16,4.8h-.75ZM33.18,63l-.67-1.53L31.81,63Z" fill="#fff"/><path d="M36.54,60.82V64.7h-.68V60.82h-1v-.64h2.76v.64Z" fill="#fff"/><path d="M42.9,60.82H41.32v1.09h1.52v.64H41.32V64.7h-.68V60.18H42.9Z" fill="#fff"/><path d="M43.77,62.42a2.22,2.22,0,0,1,.7-1.64,2.28,2.28,0,0,1,1.68-.68,2.37,2.37,0,0,1,2.35,2.35,2.19,2.19,0,0,1-.7,1.65,2.33,2.33,0,0,1-1.69.69,2.35,2.35,0,0,1-1.57-.61A2.2,2.2,0,0,1,43.77,62.42Zm.69,0a1.64,1.64,0,0,0,.5,1.23,1.61,1.61,0,0,0,1.16.49,1.73,1.73,0,0,0,1.21-2.92,1.59,1.59,0,0,0-1.19-.49,1.66,1.66,0,0,0-1.68,1.69Z" fill="#fff"/><path d="M52.21,60.85l-.55.33a.9.9,0,0,0-.3-.35.68.68,0,0,0-.37-.09.71.71,0,0,0-.48.16.5.5,0,0,0-.18.4c0,.22.16.4.49.53l.45.18a1.89,1.89,0,0,1,.81.55,1.2,1.2,0,0,1,.25.78,1.43,1.43,0,0,1-.41,1,1.45,1.45,0,0,1-1,.41,1.42,1.42,0,0,1-1-.35,1.6,1.6,0,0,1-.47-1l.69-.16a1.11,1.11,0,0,0,.17.55.76.76,0,0,0,1.14.08.73.73,0,0,0,.21-.54.88.88,0,0,0,0-.24.82.82,0,0,0-.12-.2,1.2,1.2,0,0,0-.2-.18L51,62.62l-.44-.18c-.62-.26-.93-.64-.93-1.15a1.09,1.09,0,0,1,.39-.85,1.43,1.43,0,0,1,1-.35A1.36,1.36,0,0,1,52.21,60.85Z" fill="#fff"/><path d="M54.79,60.82V64.7H54.1V60.82h-1v-.64h2.76v.64Z" fill="#fff"/><path d="M59.23,60.82H57.42v1.09h1.76v.64H57.42v1.51h1.81v.64h-2.5V60.18h2.5Z" fill="#fff"/><path d="M62,62.78l1.4,1.92h-.84l-1.29-1.85h-.12V64.7h-.68V60.18h.8a2,2,0,0,1,1.29.34A1.31,1.31,0,0,1,62,62.78Zm-.85-.52h.22c.64,0,1-.25,1-.74s-.31-.7-.94-.7h-.24Z" fill="#fff"/><path d="M69.83,60.42v.81a1.87,1.87,0,0,0-1.22-.49,1.54,1.54,0,0,0-1.18.5A1.69,1.69,0,0,0,67,62.46a1.66,1.66,0,0,0,.48,1.2,1.62,1.62,0,0,0,1.18.49,1.38,1.38,0,0,0,.61-.12,1.4,1.4,0,0,0,.29-.16,1.67,1.67,0,0,0,.32-.24v.83a2.47,2.47,0,0,1-1.23.33A2.27,2.27,0,0,1,67,64.11a2.24,2.24,0,0,1-.69-1.65,2.34,2.34,0,0,1,.58-1.54,2.26,2.26,0,0,1,1.82-.83A2.31,2.31,0,0,1,69.83,60.42Z" fill="#fff"/><path d="M70.74,62.42a2.22,2.22,0,0,1,.7-1.64,2.28,2.28,0,0,1,1.68-.68,2.37,2.37,0,0,1,2.35,2.35,2.19,2.19,0,0,1-.7,1.65,2.33,2.33,0,0,1-1.69.69,2.35,2.35,0,0,1-1.57-.61A2.23,2.23,0,0,1,70.74,62.42Zm.69,0a1.64,1.64,0,0,0,.5,1.23,1.61,1.61,0,0,0,1.16.49,1.73,1.73,0,0,0,1.21-2.92,1.59,1.59,0,0,0-1.19-.49,1.66,1.66,0,0,0-1.68,1.69Z" fill="#fff"/><path d="M76.47,64.7l1-4.86L79,63.36l1.61-3.52.86,4.86h-.7L80.3,62,79,64.91,77.66,62l-.49,2.73Z" fill="#fff"/><path d="M82.54,64.7l.95-4.86L85,63.36l1.61-3.52.85,4.86h-.7L86.37,62,85,64.91,83.73,62l-.49,2.73Z" fill="#fff"/><path d="M89.45,60.18v2.73a1.49,1.49,0,0,0,.19.85.93.93,0,0,0,.8.39.94.94,0,0,0,.8-.39,1.46,1.46,0,0,0,.19-.85V60.18h.68v2.91a1.66,1.66,0,0,1-.44,1.18,1.69,1.69,0,0,1-1.23.52,1.65,1.65,0,0,1-1.23-.52,1.62,1.62,0,0,1-.45-1.18V60.18Z" fill="#fff"/><path d="M93.5,64.7V59.87l3.29,3.45V60.18h.69V65l-3.3-3.44V64.7Z" fill="#fff"/><path d="M99.54,60.18V64.7h-.68V60.18Z" fill="#fff"/><path d="M104.27,60.42v.81a1.87,1.87,0,0,0-1.22-.49,1.54,1.54,0,0,0-1.18.5,1.69,1.69,0,0,0-.48,1.22,1.66,1.66,0,0,0,.48,1.2,1.62,1.62,0,0,0,1.18.49,1.38,1.38,0,0,0,.61-.12,1.46,1.46,0,0,0,.3-.16,2,2,0,0,0,.31-.24v.83a2.47,2.47,0,0,1-1.23.33,2.27,2.27,0,0,1-1.65-.68,2.23,2.23,0,0,1-.68-1.65,2.33,2.33,0,0,1,.57-1.54,2.28,2.28,0,0,1,1.82-.83A2.31,2.31,0,0,1,104.27,60.42Z" fill="#fff"/><path d="M108.2,63.61h-1.94l-.5,1.09H105l2.24-4.8,2.16,4.8h-.75Zm-.28-.65-.67-1.53-.7,1.53Z" fill="#fff"/><path d="M111.28,60.82V64.7h-.68V60.82h-1v-.64h2.76v.64Z" fill="#fff"/><path d="M113.91,60.18V64.7h-.68V60.18Z" fill="#fff"/><path d="M115.07,62.42a2.26,2.26,0,0,1,.7-1.64,2.31,2.31,0,0,1,1.68-.68,2.36,2.36,0,0,1,2.35,2.35,2.22,2.22,0,0,1-.69,1.65,2.33,2.33,0,0,1-1.69.69,2.37,2.37,0,0,1-1.58-.61A2.23,2.23,0,0,1,115.07,62.42Zm.69,0a1.61,1.61,0,0,0,.51,1.23,1.58,1.58,0,0,0,1.15.49,1.64,1.64,0,0,0,1.2-.49,1.76,1.76,0,0,0,0-2.43,1.68,1.68,0,0,0-2.87,1.2Z" fill="#fff"/><path d="M121,64.7V59.87l3.3,3.45V60.18h.68V65l-3.3-3.44V64.7Z" fill="#fff"/><path d="M31.52,69.39l.81,1,0,0c.09-.09.17-.19.25-.28l.23-.28.44.46a3.4,3.4,0,0,1-.21.27l-.32.36.84,1h-.85l-.46-.55A1.78,1.78,0,0,1,31,72a1.48,1.48,0,0,1-1-.38,1.28,1.28,0,0,1-.41-1,1.33,1.33,0,0,1,.65-1.12l.3-.2,0,0,0,0a1.4,1.4,0,0,1-.45-.94,1,1,0,0,1,.3-.75,1.11,1.11,0,0,1,.79-.28,1.09,1.09,0,0,1,.77.28.91.91,0,0,1,.3.7.86.86,0,0,1-.17.53A2.47,2.47,0,0,1,31.52,69.39Zm-.54.38,0,0a3.4,3.4,0,0,0-.57.46.57.57,0,0,0-.15.37.74.74,0,0,0,.22.52.75.75,0,0,0,.52.23,1.44,1.44,0,0,0,.91-.52Zm.14-.86.06,0,.24-.19.13-.14a.4.4,0,0,0,.09-.27.38.38,0,0,0-.12-.29.48.48,0,0,0-.32-.11.41.41,0,0,0-.31.12.32.32,0,0,0-.13.27.6.6,0,0,0,.16.4l.17.2Z" fill="#fff"/><path d="M39.14,68.05l-.56.33a1,1,0,0,0-.29-.35.74.74,0,0,0-.38-.09.67.67,0,0,0-.47.16.48.48,0,0,0-.19.4c0,.22.16.39.49.53l.45.18a1.89,1.89,0,0,1,.81.55,1.2,1.2,0,0,1,.25.78,1.39,1.39,0,0,1-.41,1,1.45,1.45,0,0,1-1,.41,1.39,1.39,0,0,1-1-.35,1.63,1.63,0,0,1-.48-1L37,70.5a1.22,1.22,0,0,0,.17.55.69.69,0,0,0,.61.3.68.68,0,0,0,.53-.22.7.7,0,0,0,.22-.54.86.86,0,0,0,0-.24.59.59,0,0,0-.12-.2.9.9,0,0,0-.2-.18l-.29-.15-.44-.18a1.26,1.26,0,0,1-.92-1.15,1.09,1.09,0,0,1,.39-.85,1.41,1.41,0,0,1,1-.35A1.37,1.37,0,0,1,39.14,68.05Z" fill="#fff"/><path d="M41.06,69.15H43V67.38h.68V71.9H43V69.79H41.06V71.9h-.68V67.38h.68Z" fill="#fff"/><path d="M47.73,70.8H45.8l-.51,1.1h-.73l2.24-4.8L49,71.9h-.75Zm-.27-.64-.67-1.53-.71,1.53Z" fill="#fff"/><path d="M51.35,70l1.4,1.92h-.83l-1.29-1.85H50.5V71.9h-.68V67.38h.8a2,2,0,0,1,1.3.34,1.25,1.25,0,0,1,.44,1,1.29,1.29,0,0,1-.28.82A1.27,1.27,0,0,1,51.35,70Zm-.85-.52h.22c.65,0,1-.25,1-.74s-.31-.7-.94-.7H50.5Z" fill="#fff"/><path d="M54.42,67.38V71.9h-.69V67.38Z" fill="#fff"/><path d="M55.8,71.9V67.07l3.3,3.45V67.38h.69v4.8l-3.3-3.44V71.9Z" fill="#fff"/><path d="M63.54,69.55h1.87v.15a3.06,3.06,0,0,1-.12.9,2,2,0,0,1-.39.68,2.07,2.07,0,0,1-1.61.71,2.19,2.19,0,0,1-1.62-.69,2.36,2.36,0,0,1,1.68-4,2.18,2.18,0,0,1,1,.22,2.74,2.74,0,0,1,.87.7l-.49.47a1.66,1.66,0,0,0-2.56-.25,1.67,1.67,0,0,0-.48,1.22,1.69,1.69,0,0,0,1.64,1.7,1.35,1.35,0,0,0,.9-.34,1.2,1.2,0,0,0,.45-.82H63.54Z" fill="#fff"/><path d="M68.5,69.62A2.2,2.2,0,0,1,69.2,68a2.36,2.36,0,0,1,4,1.67,2.22,2.22,0,0,1-.69,1.65,2.33,2.33,0,0,1-1.69.69,2.37,2.37,0,0,1-1.58-.61A2.22,2.22,0,0,1,68.5,69.62Zm.68,0a1.61,1.61,0,0,0,.51,1.23,1.58,1.58,0,0,0,1.15.49,1.65,1.65,0,0,0,1.21-.5,1.74,1.74,0,0,0,0-2.42,1.69,1.69,0,0,0-2.38,0A1.64,1.64,0,0,0,69.18,69.63Z" fill="#fff"/><path d="M76.64,68H75.06v1.09h1.52v.64H75.06V71.9h-.68V67.38h2.26Z" fill="#fff"/><path d="M82.21,69.55h1.87v.15a3.06,3.06,0,0,1-.12.9,1.9,1.9,0,0,1-.4.68A2.05,2.05,0,0,1,82,72a2.22,2.22,0,0,1-1.63-.69,2.36,2.36,0,0,1,1.69-4,2.18,2.18,0,0,1,1,.22,2.85,2.85,0,0,1,.87.7l-.49.47A1.63,1.63,0,0,0,82,67.94a1.61,1.61,0,0,0-1.2.49,1.68,1.68,0,0,0-.49,1.22A1.71,1.71,0,0,0,82,71.35a1.36,1.36,0,0,0,.91-.34,1.2,1.2,0,0,0,.45-.82H82.21Z" fill="#fff"/><path d="M86.77,70l1.4,1.92h-.84L86,70.05h-.12V71.9h-.68V67.38H86a2,2,0,0,1,1.29.34,1.25,1.25,0,0,1,.44,1,1.28,1.28,0,0,1-.27.82A1.3,1.3,0,0,1,86.77,70Zm-.85-.52h.22c.64,0,1-.25,1-.74s-.32-.7-1-.7h-.24Z" fill="#fff"/><path d="M91.65,68H89.83v1.09h1.76v.64H89.83v1.51h1.82v.64h-2.5V67.38h2.5Z" fill="#fff"/><path d="M95.5,70.8H93.56l-.5,1.1h-.74l2.24-4.8,2.16,4.8H96Zm-.28-.64-.67-1.53-.7,1.53Z" fill="#fff"/><path d="M98.58,68V71.9H97.9V68h-1v-.64h2.76V68Z" fill="#fff"/><path d="M103.36,67.38V71.9h-.68V67.38Z" fill="#fff"/><path d="M104.75,71.9V67.38h1a3.87,3.87,0,0,1,1.08.13,2.08,2.08,0,0,1,.77.45,2.2,2.2,0,0,1,.7,1.68,2.16,2.16,0,0,1-.73,1.69,2.35,2.35,0,0,1-.77.45,3.63,3.63,0,0,1-1.06.12Zm.68-.64h.31a2.68,2.68,0,0,0,.76-.09,1.59,1.59,0,0,0,.56-.33,1.58,1.58,0,0,0,.5-1.2,1.6,1.6,0,0,0-.5-1.21,1.91,1.91,0,0,0-1.32-.41h-.31Z" fill="#fff"/><path d="M111.9,68h-1.81v1.09h1.76v.64h-1.76v1.51h1.81v.64h-2.49V67.38h2.49Z" fill="#fff"/><path d="M115.76,70.8h-1.94l-.5,1.1h-.74l2.24-4.8L117,71.9h-.75Zm-.28-.64-.67-1.53-.71,1.53Z" fill="#fff"/><path d="M120.4,68.05l-.55.33a1,1,0,0,0-.3-.35.71.71,0,0,0-.38-.09.69.69,0,0,0-.47.16.51.51,0,0,0-.19.4c0,.22.17.39.5.53l.45.18a1.85,1.85,0,0,1,.8.55,1.2,1.2,0,0,1,.26.78,1.4,1.4,0,0,1-.42,1,1.43,1.43,0,0,1-1,.41,1.41,1.41,0,0,1-1-.35,1.62,1.62,0,0,1-.47-1l.69-.16a1.24,1.24,0,0,0,.16.55.71.71,0,0,0,.62.3.69.69,0,0,0,.53-.22.73.73,0,0,0,.21-.54.61.61,0,0,0,0-.24.56.56,0,0,0-.11-.2,1.2,1.2,0,0,0-.2-.18l-.29-.15-.44-.18a1.26,1.26,0,0,1-.93-1.15,1.09,1.09,0,0,1,.39-.85,1.41,1.41,0,0,1,1-.35A1.36,1.36,0,0,1,120.4,68.05Z" fill="#fff"/></svg>