<svg id="Layer_1" data-name="Layer 1" xmlns="http://www.w3.org/2000/svg" xmlns:xlink="http://www.w3.org/1999/xlink" viewBox="0 0 1500 500"><defs><linearGradient id="green_blue_gradient" x1="200.58" y1="250" x2="242.65" y2="250" gradientUnits="userSpaceOnUse"><stop offset="0" stop-color="#63b773"/><stop offset="1" stop-color="#009fdd"/></linearGradient><linearGradient id="green_blue_gradient-2" x1="258.42" y1="250" x2="300.49" y2="250" xlink:href="#green_blue_gradient"/><linearGradient id="green_blue_gradient-3" x1="316.27" y1="250" x2="358.34" y2="250" xlink:href="#green_blue_gradient"/><linearGradient id="linear-gradient" x1="200.58" y1="250" x2="358.34" y2="250" gradientUnits="userSpaceOnUse"><stop offset="0" stop-color="#009fdd"/><stop offset="1" stop-color="#63b773"/></linearGradient><linearGradient id="linear-gradient-2" x1="532.15" y1="298.45" x2="1418.93" y2="298.45" gradientUnits="userSpaceOnUse"><stop offset="0" stop-color="#009fdd"/><stop offset="1" stop-color="#62b771"/></linearGradient></defs><path d="M195.28,383.44H195a157.92,157.92,0,0,1-69.09-96.9,158.34,158.34,0,0,0,69.34,96.89Z" fill="#fff"/><path d="M200.58,250a21,21,0,1,1,21,21A21,21,0,0,1,200.58,250Z" fill="#fff"/><path d="M258.42,250a21,21,0,1,1,21,21A21,21,0,0,1,258.42,250Z" fill="#fff"/><path d="M352.94,389.6l-.14.28a158,158,0,0,1-146.67,0l-.15-.28A157.62,157.62,0,0,0,352.94,389.6Z" fill="#fff"/><path d="M358.34,250a21,21,0,1,1-21-21A21,21,0,0,1,358.34,250Z" fill="#fff"/><path d="M398,354.11h.09a158.53,158.53,0,0,1-37.82,31.56l-.17,0,.1-.17A157.29,157.29,0,0,0,398,354.11Z" fill="#fff"/><path d="M435.32,274.41a155.72,155.72,0,0,1-6.4,26.25l0-.08A159,159,0,0,0,435.32,274.41Z" fill="#fff"/><path d="M437.31,252l-.08.13a158.12,158.12,0,0,1-1.58,20.06.43.43,0,0,1,0,.11c-.08.63-.18,1.27-.28,1.9l0,.19a159,159,0,0,1-6.43,26.17l0,.08L450,348.48l-51.91,5.62H398a157.29,157.29,0,0,1-37.8,31.41l-.1.17.17,0,114-23.16ZM297.94,70A26.3,26.3,0,1,0,261,70c-37.48,7.7-53.42,37.25-55,40.4a157.62,157.62,0,0,1,147,0C351.26,107.1,335.3,77.68,297.94,70Zm176.37,67.5a26.28,26.28,0,0,0-48.2,6.5c-25.28-28.45-58.64-27.64-62.44-27.44a158,158,0,0,1,73.46,127.23c2.08-3.22,19.45-31.68,7.46-67.79a26.29,26.29,0,0,0,29.72-38.5ZM206,389.61l.15.28A82,82,0,0,0,261,430a26.29,26.29,0,1,0,36.94,0,82,82,0,0,0,54.87-40.12l.14-.28A157.62,157.62,0,0,1,206,389.61Zm-63.14-60.73a158.06,158.06,0,0,1-16.9-42.33c-.51-2.16-1-4.32-1.39-6.49-.13-.65-.25-1.29-.36-1.94a154.86,154.86,0,0,1-2.4-21.91c-2.11,3.25-19.45,31.7-7.45,67.79a26.3,26.3,0,1,0,18.47,32A82,82,0,0,0,195,383.45h.25A156.75,156.75,0,0,1,142.84,328.88ZM132.81,144a26.29,26.29,0,1,0-18.47,32c-12,36.14,5.4,64.63,7.46,67.8a157.63,157.63,0,0,1,73.51-127.24C191.78,116.37,158.22,115.39,132.81,144Z" fill="#4b3521"/><path d="M242.65,250a21,21,0,1,1-21-21A21,21,0,0,1,242.65,250Z" fill="url(#green_blue_gradient)"/><path d="M300.49,250a21,21,0,1,1-21-21A21,21,0,0,1,300.49,250Z" fill="url(#green_blue_gradient-2)"/><path d="M358.34,250a21,21,0,1,1-21-21A21,21,0,0,1,358.34,250Z" fill="url(#green_blue_gradient-3)"/><path d="M221.61,229a21,21,0,1,0,21,21A21,21,0,0,0,221.61,229Zm115.69,0a21,21,0,1,0,21,21A21,21,0,0,0,337.3,229Zm-57.84,0a21,21,0,1,0,21,21A21,21,0,0,0,279.46,229Z" fill="url(#linear-gradient)"/><path d="M428.92,300.66l0-.08a159,159,0,0,0,6.43-26.17l0-.19c.1-.63.19-1.26.28-1.9a.43.43,0,0,0,0-.11,159.73,159.73,0,0,0,1.52-22,157.72,157.72,0,1,0-313,27.92l.36,1.94c.41,2.17.88,4.33,1.39,6.49a158.34,158.34,0,0,0,69.34,96.89H195c3.6,2.3,7.31,4.44,11.1,6.44l-.15-.28a157.62,157.62,0,0,0,147,0l-.14.28q3.81-2,7.5-4.22l-.17,0,.1-.17A157.29,157.29,0,0,0,398,354.11h.09L450,348.48ZM221.61,271a21,21,0,1,1,21-21A21,21,0,0,1,221.61,271Zm57.85,0a21,21,0,1,1,21-21A21,21,0,0,1,279.46,271Zm57.84,0a21,21,0,1,1,21-21A21,21,0,0,1,337.3,271Z" fill="#fff"/><path d="M622.33,249.44v20.29q-15-12.42-31-12.42a39.55,39.55,0,0,0-29.69,12.57q-12.15,12.51-12.14,30.59,0,17.86,12.14,30.15a40.27,40.27,0,0,0,29.77,12.28A36.72,36.72,0,0,0,606.93,340a44.45,44.45,0,0,0,7.37-4,85.94,85.94,0,0,0,8-6v20.66a62.64,62.64,0,0,1-31.1,8.31q-24.51,0-41.83-17a56.11,56.11,0,0,1-17.25-41.32,58.08,58.08,0,0,1,14.43-38.68q17.77-20.81,46-20.81A58.65,58.65,0,0,1,622.33,249.44Z"/><path d="M664.54,287.75h49.32V243.34h17.25V356.87H713.86v-53H664.54v53H647.29V243.34h17.25Z"/><path d="M825.67,329.29H776.72L764,356.87H745.4L802,236.2l54.57,120.67H837.66Zm-7-16.1-17-38.6-17.78,38.6Z"/><path d="M896,259.44v97.43H878.76V259.44H852.47v-16.1h69.75v16.1Z"/><path d="M976.35,308.48l35.4,48.39H990.64L958,310.4h-3.11v46.47H937.62V243.34h20.22q22.67,0,32.73,8.45,11.1,9.42,11.11,24.86a32.09,32.09,0,0,1-7,20.73A31,31,0,0,1,976.35,308.48Zm-21.47-13h5.48q24.51,0,24.51-18.6,0-17.43-23.85-17.43h-6.14Z"/><path d="M1020.63,299.59q0-24,17.7-41.18a58.47,58.47,0,0,1,42.35-17.21q24.43,0,41.92,17.36t17.54,41.69a55.62,55.62,0,0,1-17.62,41.54q-17.7,17.15-42.72,17.14-22.15,0-39.77-15.22Q1020.63,326.87,1020.63,299.59Zm17.4.22q0,18.82,12.74,30.95T1080,342.9q18,0,30.36-12.36a41.66,41.66,0,0,0,12.36-30.44q0-18.15-12.21-30.44t-30.07-12.35a40.88,40.88,0,0,0-30.13,12.35Q1038,281.87,1038,299.81Z"/><path d="M1156.14,299.59q0-24,17.69-41.18a58.48,58.48,0,0,1,42.36-17.21q24.43,0,41.91,17.36t17.55,41.69A55.66,55.66,0,0,1,1258,341.79q-17.7,17.15-42.73,17.14-22.14,0-39.76-15.22Q1156.13,326.87,1156.14,299.59Zm17.4.22q0,18.82,12.73,30.95t29.25,12.14q18,0,30.36-12.36a41.63,41.63,0,0,0,12.37-30.44q0-18.15-12.22-30.44T1216,257.31a40.89,40.89,0,0,0-30.14,12.35Q1173.55,281.87,1173.54,299.81Z"/><path d="M1293.35,356.87l24.06-122.06L1356.66,323l40.65-88.23,21.62,122.06h-17.7l-11-68.53-33.84,73.75-32.88-73.83-12.29,68.61Z"/><path d="M622.33,249.44v20.29q-15-12.42-31-12.42a39.55,39.55,0,0,0-29.69,12.57q-12.15,12.51-12.14,30.59,0,17.86,12.14,30.15a40.27,40.27,0,0,0,29.77,12.28A36.72,36.72,0,0,0,606.93,340a44.45,44.45,0,0,0,7.37-4,85.94,85.94,0,0,0,8-6v20.66a62.64,62.64,0,0,1-31.1,8.31q-24.51,0-41.83-17a56.11,56.11,0,0,1-17.25-41.32,58.08,58.08,0,0,1,14.43-38.68q17.77-20.81,46-20.81A58.65,58.65,0,0,1,622.33,249.44Z" fill="url(#linear-gradient-2)"/><path d="M664.54,287.75h49.32V243.34h17.25V356.87H713.86v-53H664.54v53H647.29V243.34h17.25Z" fill="url(#linear-gradient-2)"/><path d="M825.67,329.29H776.72L764,356.87H745.4L802,236.2l54.57,120.67H837.66Zm-7-16.1-17-38.6-17.78,38.6Z" fill="url(#linear-gradient-2)"/><path d="M896,259.44v97.43H878.76V259.44H852.47v-16.1h69.75v16.1Z" fill="url(#linear-gradient-2)"/><path d="M976.35,308.48l35.4,48.39H990.64L958,310.4h-3.11v46.47H937.62V243.34h20.22q22.67,0,32.73,8.45,11.1,9.42,11.11,24.86a32.09,32.09,0,0,1-7,20.73A31,31,0,0,1,976.35,308.48Zm-21.47-13h5.48q24.51,0,24.51-18.6,0-17.43-23.85-17.43h-6.14Z" fill="url(#linear-gradient-2)"/><path d="M1020.63,299.59q0-24,17.7-41.18a58.47,58.47,0,0,1,42.35-17.21q24.43,0,41.92,17.36t17.54,41.69a55.62,55.62,0,0,1-17.62,41.54q-17.7,17.15-42.72,17.14-22.15,0-39.77-15.22Q1020.63,326.87,1020.63,299.59Zm17.4.22q0,18.82,12.74,30.95T1080,342.9q18,0,30.36-12.36a41.66,41.66,0,0,0,12.36-30.44q0-18.15-12.21-30.44t-30.07-12.35a40.88,40.88,0,0,0-30.13,12.35Q1038,281.87,1038,299.81Z" fill="url(#linear-gradient-2)"/><path d="M1156.14,299.59q0-24,17.69-41.18a58.48,58.48,0,0,1,42.36-17.21q24.43,0,41.91,17.36t17.55,41.69A55.66,55.66,0,0,1,1258,341.79q-17.7,17.15-42.73,17.14-22.14,0-39.76-15.22Q1156.13,326.87,1156.14,299.59Zm17.4.22q0,18.82,12.73,30.95t29.25,12.14q18,0,30.36-12.36a41.63,41.63,0,0,0,12.37-30.44q0-18.15-12.22-30.44T1216,257.31a40.89,40.89,0,0,0-30.14,12.35Q1173.55,281.87,1173.54,299.81Z" fill="url(#linear-gradient-2)"/><path d="M1293.35,356.87l24.06-122.06L1356.66,323l40.65-88.23,21.62,122.06h-17.7l-11-68.53-33.84,73.75-32.88-73.83-12.29,68.61Z" fill="url(#linear-gradient-2)"/><path d="M570.28,184.14,599,223.73H581.9l-26.54-38h-2.52v38h-14V130.84h16.42q18.42,0,26.59,6.92,9,7.71,9,20.34a26.39,26.39,0,0,1-5.66,17A25.19,25.19,0,0,1,570.28,184.14ZM552.84,173.5h4.45q19.9,0,19.91-15.22,0-14.26-19.37-14.26h-5Z" fill="#4b3521"/><path d="M616,176.87q0-19.62,14.38-33.69a47.32,47.32,0,0,1,34.41-14.08,48.57,48.57,0,0,1,48.31,48.31,45.7,45.7,0,0,1-14.31,34,48,48,0,0,1-34.72,14q-18,0-32.3-12.46Q616,199.19,616,176.87Zm14.14.18q0,15.39,10.35,25.32t23.76,9.93a33.43,33.43,0,0,0,24.67-10.11A34.18,34.18,0,0,0,699,177.29q0-14.86-9.93-24.91a34.63,34.63,0,0,0-48.91,0A33.51,33.51,0,0,0,630.13,177.05Z" fill="#4b3521"/><path d="M754.47,130.84v55.95q0,12,3.91,17.51,5.83,8,16.43,8t16.48-8q3.91-5.36,3.91-17.51V130.84h14v59.8q0,14.69-9.15,24.19a35.36,35.36,0,0,1-50.47,0q-9.15-9.51-9.15-24.19v-59.8Z" fill="#4b3521"/><path d="M841.21,223.73v-99.2L909,195.39V130.84h14v98.55L855.23,158.7v65Z" fill="#4b3521"/><path d="M955,223.73V130.84h19.49q14,0,22.14,2.77a41.43,41.43,0,0,1,15.83,9.2q14.37,13.13,14.37,34.48t-15,34.65a43.61,43.61,0,0,1-15.76,9.2q-7.69,2.6-21.84,2.59Zm14-13.17h6.32a52.82,52.82,0,0,0,15.7-2,31.81,31.81,0,0,0,11.31-6.68q10.35-9.44,10.35-24.6t-10.23-24.79Q993.22,144,975.3,144H969Z" fill="#4b3521"/><path d="M1076.59,144v79.71h-14V144h-21.36V130.84h56.67V144Z" fill="#4b3521"/><path d="M1169.65,201.17h-39.76l-10.35,22.56h-15.1l46-98.72,44.34,98.72H1179.4ZM1163.94,188l-13.78-31.59L1135.72,188Z" fill="#4b3521"/><path d="M1216.08,223.73V130.84h14a60.68,60.68,0,0,1,14.86,1.45,22.29,22.29,0,0,1,9.45,4.87,25.32,25.32,0,0,1,6.19,8.84,26.67,26.67,0,0,1,2.35,10.83,22,22,0,0,1-7.64,16.91,22.44,22.44,0,0,1,11.67,8.84,26.19,26.19,0,0,1-3.37,33,25.35,25.35,0,0,1-10.41,6.44,60.65,60.65,0,0,1-15.82,1.74Zm14-53h4.39q7.83,0,11.46-3.46t3.64-10.2q0-6.56-3.73-9.95t-10.83-3.4h-4.93Zm0,39.83h8.66q9.51,0,14-3.73a12.9,12.9,0,0,0,4.69-10.23,13.1,13.1,0,0,0-4.51-10.11q-4.39-4-15.7-4h-7.1Z" fill="#4b3521"/><path d="M1312.69,130.84v79.72H1340v13.17h-41.33V130.84Z" fill="#4b3521"/><path d="M1414.29,144h-37.24v22.32h36.15v13.17h-36.15v31.05h37.24v13.17H1363V130.84h51.26Z" fill="#4b3521"/></svg>