<svg id="Layer_1" data-name="Layer 1" xmlns="http://www.w3.org/2000/svg" xmlns:xlink="http://www.w3.org/1999/xlink" viewBox="0 0 500 500"><defs><linearGradient id="green_blue_gradient" x1="165.17" y1="250" x2="210.41" y2="250" gradientUnits="userSpaceOnUse"><stop offset="0" stop-color="#63b773"/><stop offset="1" stop-color="#009fdd"/></linearGradient><linearGradient id="green_blue_gradient-2" x1="227.38" x2="272.62" xlink:href="#green_blue_gradient"/><linearGradient id="green_blue_gradient-3" x1="289.59" x2="334.83" xlink:href="#green_blue_gradient"/><linearGradient id="linear-gradient" x1="165.17" y1="250" x2="334.83" y2="250" gradientUnits="userSpaceOnUse"><stop offset="0" stop-color="#009fdd"/><stop offset="1" stop-color="#63b773"/></linearGradient></defs><path d="M191.76,396.61q3.33,1.32,6.72,2.49Q195.08,397.94,191.76,396.61Z" fill="#fff"/><path d="M198.48,399.1c3,1,6.06,2,9.12,2.85Q203,400.68,198.48,399.1Z" fill="#fff"/><circle cx="187.79" cy="250" r="22.62" fill="#fff"/><path d="M207.6,402c1.54.42,3.08.83,4.62,1.21C210.67,402.79,209.13,402.38,207.6,402Z" fill="#fff"/><circle cx="250" cy="250" r="22.62" fill="#fff"/><circle cx="312.21" cy="250" r="22.62" fill="#fff"/><path d="M399.43,300.58a159.18,159.18,0,0,0,5.48-20.72,155.9,155.9,0,0,1-5.47,20.73Z" fill="#fff"/><path d="M407.85,252l-.08.13A157,157,0,0,1,405.6,276c-.06.42-.13.83-.21,1.25-.15.84-.3,1.68-.46,2.52a.52.52,0,0,0,0,.11,159.18,159.18,0,0,1-5.48,20.72h0l21.13,47.88-52,5.63A156.66,156.66,0,0,1,335,382.88c-1.07.7-2.14,1.37-3.23,2q-.51.33-1,.63l-.1.17L444.86,362.5ZM268.48,70a26.3,26.3,0,1,0-37,0c-37.47,7.7-53.42,37.25-55,40.4,1.13-.6,2.26-1.18,3.4-1.73q4.32-2.16,8.7-4a157.11,157.11,0,0,1,98.92-7.9q5.67,1.38,11.22,3.19c.61.19,1.23.4,1.84.61s1.43.48,2.14.74q.75.25,1.5.54,3.79,1.38,7.52,3c.47.19.94.4,1.41.61q5.25,2.26,10.32,4.94C321.8,107.1,305.85,77.68,268.48,70Zm176.38,67.5a26.29,26.29,0,0,0-48.21,6.5c-25.28-28.45-58.63-27.64-62.44-27.44a156.66,156.66,0,0,1,50.69,51.65c.59,1,1.16,1.93,1.73,2.91.39.67.77,1.35,1.14,2s.63,1.11.92,1.67c.24.41.46.83.68,1.25q1.47,2.76,2.81,5.55.42.85.81,1.71.84,1.78,1.62,3.57,1.15,2.63,2.18,5.27c.25.6.48,1.19.7,1.79a156.34,156.34,0,0,1,10.18,49.83c2.09-3.22,19.45-31.68,7.46-67.79a26.3,26.3,0,0,0,29.73-38.5ZM323.48,389.6l-1.71.89-1.35.68c-1.25.63-2.51,1.24-3.77,1.82s-2.32,1.07-3.49,1.58c-.65.29-1.31.57-2,.84s-1.05.45-1.58.66a157,157,0,0,1-87.54,9.19l-1.73-.32c-.92-.17-1.83-.36-2.74-.55l-1.31-.28-1.92-.43-2.16-.52c-1.54-.38-3.08-.79-4.62-1.21-3.06-.86-6.11-1.81-9.12-2.85q-3.39-1.17-6.72-2.49l-2.22-.9-2.2-.93c-1.92-.83-3.83-1.7-5.71-2.61-.58-.27-1.15-.55-1.72-.84s-1.14-.56-1.71-.86l-1.67-.86c1.66,3.26,17.61,32.71,55,40.39a26.29,26.29,0,1,0,36.94,0C305.91,422.31,321.85,392.8,323.48,389.6Zm-210.1-60.72c-.39-.67-.77-1.35-1.14-2s-.63-1.11-.92-1.67-.61-1.12-.9-1.68a153,153,0,0,1-7.2-15.67,156.18,156.18,0,0,1-10.89-51.62c-2.11,3.25-19.45,31.7-7.45,67.79a26.31,26.31,0,1,0,18.47,32c25.34,28.52,58.79,27.63,62.47,27.44A156.75,156.75,0,0,1,113.38,328.88ZM103.36,144a26.3,26.3,0,1,0-18.47,32c-12,36.14,5.39,64.63,7.45,67.8a157.62,157.62,0,0,1,2.76-23.66c.24-1.29.5-2.57.79-3.85.12-.59.25-1.17.4-1.76q.66-2.92,1.45-5.83c.18-.67.37-1.33.56-2,.25-.9.52-1.81.8-2.71.18-.6.37-1.2.56-1.79s.31-1,.48-1.48.28-.87.43-1.31c.2-.61.41-1.22.63-1.82q1-2.82,2.09-5.59c.2-.54.42-1.08.65-1.62a156.86,156.86,0,0,1,61.91-73.82C162.33,116.37,128.76,115.39,103.36,144Z" fill="#4b3521"/><circle cx="187.79" cy="250" r="22.62" fill="url(#green_blue_gradient)"/><circle cx="250" cy="250" r="22.62" fill="url(#green_blue_gradient-2)"/><circle cx="312.21" cy="250" r="22.62" fill="url(#green_blue_gradient-3)"/><path d="M187.79,227.38A22.62,22.62,0,1,0,210.41,250,22.61,22.61,0,0,0,187.79,227.38Zm124.42,0A22.62,22.62,0,1,0,334.83,250,22.61,22.61,0,0,0,312.21,227.38Zm-62.21,0A22.62,22.62,0,1,0,272.62,250,22.61,22.61,0,0,0,250,227.38Z" fill="url(#linear-gradient)"/><path d="M399.44,300.6h0a159.18,159.18,0,0,0,5.48-20.72.52.52,0,0,1,0-.11c.16-.84.31-1.68.46-2.52l.21-1.25a158.79,158.79,0,0,0-8.11-82c-.23-.6-.46-1.2-.7-1.79q-1.05-2.65-2.18-5.27-.78-1.78-1.62-3.57l-.81-1.71q-1.33-2.79-2.81-5.55l-.68-1.25c-.3-.56-.61-1.12-.92-1.67q-1.39-2.49-2.87-4.94a158.41,158.41,0,0,0-71.74-62.78l-1.41-.61q-3.72-1.59-7.52-3l-1.5-.54c-.71-.26-1.42-.51-2.14-.74l-1.84-.61q-5.55-1.81-11.22-3.19a158.58,158.58,0,0,0-98.92,7.9q-4.43,1.88-8.7,4a158.31,158.31,0,0,0-76,81.71c-.22.54-.44,1.08-.65,1.62q-1.11,2.77-2.09,5.59l-.63,1.82c-.15.44-.29.87-.43,1.31s-.33,1-.48,1.48-.38,1.19-.56,1.79c-.28.9-.55,1.81-.8,2.71-.19.67-.38,1.33-.56,2q-.8,2.91-1.45,5.83c-.14.58-.27,1.17-.4,1.76-.28,1.28-.54,2.56-.79,3.85A157.39,157.39,0,0,0,110.42,323.5l.9,1.68c.3.56.61,1.12.92,1.67a158.44,158.44,0,0,0,66,63.62l1.71.86,1.72.84c1.88.91,3.79,1.78,5.71,2.61l2.2.93,2.22.9q3.33,1.32,6.72,2.49c3,1,6.06,2,9.12,2.85,1.54.42,3.08.83,4.62,1.21l2.16.52,1.92.43,1.31.28c.91.19,1.82.38,2.74.55l1.73.32a158.78,158.78,0,0,0,87.54-9.19l1.58-.66c.65-.27,1.31-.55,2-.84,1.17-.51,2.34-1,3.49-1.58s2.52-1.19,3.77-1.82l1.35-.68,1.71-.89q4.23-2.24,8.31-4.71c1.08-.66,2.16-1.33,3.23-2s2.38-1.56,3.55-2.35a157.16,157.16,0,0,0,30-26.42l52-5.63Zm-211.65-28A22.62,22.62,0,1,1,210.41,250,22.61,22.61,0,0,1,187.79,272.62Zm62.21,0A22.62,22.62,0,1,1,272.62,250,22.61,22.61,0,0,1,250,272.62Zm62.21,0A22.62,22.62,0,1,1,334.83,250,22.61,22.61,0,0,1,312.21,272.62Z" fill="#fff"/></svg>