<svg id="Layer_2" data-name="Layer 2" xmlns="http://www.w3.org/2000/svg" xmlns:xlink="http://www.w3.org/1999/xlink" viewBox="0 0 100 100"><defs><linearGradient id="green_blue_gradient" x1="14.67" y1="23.49" x2="17.35" y2="23.49" gradientUnits="userSpaceOnUse"><stop offset="0" stop-color="#63b773"/><stop offset="1" stop-color="#009fdd"/></linearGradient><linearGradient id="green_blue_gradient-2" x1="18.36" y1="23.49" x2="21.04" y2="23.49" xlink:href="#green_blue_gradient"/><linearGradient id="green_blue_gradient-3" x1="22.04" y1="23.49" x2="24.72" y2="23.49" xlink:href="#green_blue_gradient"/><linearGradient id="linear-gradient" x1="14.67" y1="23.49" x2="24.72" y2="23.49" gradientUnits="userSpaceOnUse"><stop offset="0" stop-color="#009fdd"/><stop offset="1" stop-color="#63b773"/></linearGradient><linearGradient id="linear-gradient-2" x1="35.79" y1="26.57" x2="92.28" y2="26.57" gradientUnits="userSpaceOnUse"><stop offset="0" stop-color="#009fdd"/><stop offset="1" stop-color="#62b771"/></linearGradient></defs><rect width="100" height="100" fill="#fff"/><path d="M14.33,32h0a10.09,10.09,0,0,1-4.4-6.17A10,10,0,0,0,11,28.51,10.05,10.05,0,0,0,14.33,32Z" fill="#fff"/><path d="M14.67,23.49A1.34,1.34,0,1,1,16,24.83,1.34,1.34,0,0,1,14.67,23.49Z" fill="#fff"/><path d="M18.36,23.49a1.34,1.34,0,1,1,1.34,1.34A1.34,1.34,0,0,1,18.36,23.49Z" fill="#fff"/><path d="M24.38,32.38v0a10.06,10.06,0,0,1-9.34,0v0A10.06,10.06,0,0,0,24.38,32.38Z" fill="#fff"/><path d="M24.72,23.49a1.34,1.34,0,1,1-1.34-1.34A1.34,1.34,0,0,1,24.72,23.49Z" fill="#fff"/><path d="M27.25,30.12h0a10.32,10.32,0,0,1-2.41,2h0A10,10,0,0,0,27.25,30.12Z" fill="#fff"/><path d="M29.63,25a10.3,10.3,0,0,1-.41,1.68h0A10.44,10.44,0,0,0,29.63,25Z" fill="#fff"/><path d="M29.75,23.62h0a10.86,10.86,0,0,1-.1,1.27h0s0,.08,0,.12h0a10.44,10.44,0,0,1-.41,1.67h0l1.34,3-3.3.36h0a10,10,0,0,1-2.41,2h0l7.26-1.48ZM20.87,12a1.64,1.64,0,0,0,.5-1.19,1.68,1.68,0,0,0-3.35,0,1.64,1.64,0,0,0,.5,1.19A5.16,5.16,0,0,0,15,14.6a10,10,0,0,1,9.36,0A5.28,5.28,0,0,0,20.87,12Zm11.24,4.3a1.67,1.67,0,0,0-3.07.42,5.21,5.21,0,0,0-4-1.75,10,10,0,0,1,4.68,8.1,5.24,5.24,0,0,0,.48-4.32,1.66,1.66,0,0,0,1.28-.16A1.68,1.68,0,0,0,32.11,16.32ZM15,32.38v0A5.15,5.15,0,0,0,18.52,35a1.68,1.68,0,1,0,2.35,0,5.21,5.21,0,0,0,3.5-2.55v0A10.06,10.06,0,0,1,15,32.38Zm-4-3.87a10,10,0,0,1-1.07-2.69,3.15,3.15,0,0,1-.09-.42.5.5,0,0,1,0-.12,9.38,9.38,0,0,1-.16-1.4,5.22,5.22,0,0,0-.47,4.32,1.68,1.68,0,0,0-1.9,2.45,1.68,1.68,0,0,0,2.29.62,1.63,1.63,0,0,0,.78-1,5.27,5.27,0,0,0,4,1.75h0A10.05,10.05,0,0,1,11,28.51Zm-.64-11.77a1.61,1.61,0,0,0-.78-1,1.67,1.67,0,1,0-1.67,2.9,1.65,1.65,0,0,0,1.28.16,5.2,5.2,0,0,0,.47,4.32A10,10,0,0,1,14.34,15,5.21,5.21,0,0,0,10.35,16.74Z" fill="#4b3521"/><path d="M17.35,23.49A1.34,1.34,0,1,1,16,22.15,1.34,1.34,0,0,1,17.35,23.49Z" fill="url(#green_blue_gradient)"/><path d="M21,23.49a1.34,1.34,0,1,1-1.34-1.34A1.34,1.34,0,0,1,21,23.49Z" fill="url(#green_blue_gradient-2)"/><path d="M24.72,23.49a1.34,1.34,0,1,1-1.34-1.34A1.34,1.34,0,0,1,24.72,23.49Z" fill="url(#green_blue_gradient-3)"/><path d="M16,22.15a1.34,1.34,0,1,0,1.34,1.34A1.34,1.34,0,0,0,16,22.15Zm7.37,0a1.34,1.34,0,1,0,1.34,1.34A1.34,1.34,0,0,0,23.38,22.15Zm-3.68,0A1.34,1.34,0,1,0,21,23.49,1.34,1.34,0,0,0,19.7,22.15Z" fill="url(#linear-gradient)"/><path d="M29.22,26.72h0A10.44,10.44,0,0,0,29.63,25h0s0-.08,0-.12h0a10.62,10.62,0,0,0,.09-1.4,10,10,0,1,0-20.09,0,9.51,9.51,0,0,0,.16,1.78l0,.12a3.15,3.15,0,0,0,.09.42A10,10,0,0,0,11,28.51,10.05,10.05,0,0,0,14.33,32h0c.23.15.46.28.71.41v0a10.06,10.06,0,0,0,9.36,0v0l.48-.27h0a10,10,0,0,0,2.41-2h0l3.3-.36ZM16,24.83a1.34,1.34,0,1,1,1.34-1.34A1.34,1.34,0,0,1,16,24.83Zm3.69,0A1.34,1.34,0,1,1,21,23.49,1.34,1.34,0,0,1,19.7,24.83Zm3.68,0a1.34,1.34,0,1,1,1.34-1.34A1.34,1.34,0,0,1,23.38,24.83Z" fill="#fff"/><path d="M41.54,23.45v1.3a3.06,3.06,0,0,0-2-.8,2.52,2.52,0,0,0-1.89.8,2.71,2.71,0,0,0-.78,1.95,2.61,2.61,0,0,0,.78,1.92,2.51,2.51,0,0,0,1.89.79,2.43,2.43,0,0,0,1-.19A3.64,3.64,0,0,0,41,29q.24-.16.51-.39V29.9a4,4,0,0,1-2,.53,3.69,3.69,0,0,1-2.67-1.08,3.6,3.6,0,0,1-1.1-2.64,3.81,3.81,0,0,1,3.85-3.79A3.76,3.76,0,0,1,41.54,23.45Z"/><path d="M44.23,25.89h3.14V23.06h1.1V30.3h-1.1V26.92H44.23V30.3h-1.1V23.06h1.1Z"/><path d="M54.49,28.54H51.37l-.81,1.76H49.38L53,22.61l3.48,7.69h-1.2Zm-.45-1L53,25.05l-1.13,2.46Z"/><path d="M59,24.09V30.3h-1.1V24.09H56.2v-1h4.44v1Z"/><path d="M64.09,27.21l2.25,3.09H65l-2.08-3h-.2v3h-1.1V23.06h1.29A3.25,3.25,0,0,1,65,23.6a2,2,0,0,1,.7,1.59,2,2,0,0,1-.44,1.32A2,2,0,0,1,64.09,27.21Zm-1.37-.83h.35c1,0,1.56-.39,1.56-1.18s-.5-1.11-1.52-1.11h-.39Z"/><path d="M66.91,26.65A3.55,3.55,0,0,1,68,24a3.84,3.84,0,0,1,5.37,0,3.63,3.63,0,0,1,1.11,2.66,3.55,3.55,0,0,1-1.12,2.65,3.86,3.86,0,0,1-5.25.12A3.53,3.53,0,0,1,66.91,26.65Zm1.11,0a2.72,2.72,0,0,0,2.67,2.75,2.75,2.75,0,0,0,2-4.67A2.7,2.7,0,0,0,68,26.66Z"/><path d="M75.54,26.65A3.55,3.55,0,0,1,76.67,24a3.73,3.73,0,0,1,2.7-1.09,3.79,3.79,0,0,1,3.79,3.76A3.56,3.56,0,0,1,82,29.34a3.86,3.86,0,0,1-5.25.12A3.53,3.53,0,0,1,75.54,26.65Zm1.11,0a2.71,2.71,0,0,0,2.68,2.75,2.75,2.75,0,0,0,1.94-4.67A2.62,2.62,0,0,0,79.35,24a2.65,2.65,0,0,0-1.92.79A2.61,2.61,0,0,0,76.65,26.66Z"/><path d="M84.28,30.3l1.54-7.78,2.5,5.62,2.59-5.62,1.37,7.78H91.16l-.71-4.37-2.15,4.7-2.1-4.7-.78,4.37Z"/><path d="M41.54,23.45v1.3a3.06,3.06,0,0,0-2-.8,2.52,2.52,0,0,0-1.89.8,2.71,2.71,0,0,0-.78,1.95,2.61,2.61,0,0,0,.78,1.92,2.51,2.51,0,0,0,1.89.79,2.43,2.43,0,0,0,1-.19A3.64,3.64,0,0,0,41,29q.24-.16.51-.39V29.9a4,4,0,0,1-2,.53,3.69,3.69,0,0,1-2.67-1.08,3.6,3.6,0,0,1-1.1-2.64,3.81,3.81,0,0,1,3.85-3.79A3.76,3.76,0,0,1,41.54,23.45Z" fill="url(#linear-gradient-2)"/><path d="M44.23,25.89h3.14V23.06h1.1V30.3h-1.1V26.92H44.23V30.3h-1.1V23.06h1.1Z" fill="url(#linear-gradient-2)"/><path d="M54.49,28.54H51.37l-.81,1.76H49.38L53,22.61l3.48,7.69h-1.2Zm-.45-1L53,25.05l-1.13,2.46Z" fill="url(#linear-gradient-2)"/><path d="M59,24.09V30.3h-1.1V24.09H56.2v-1h4.44v1Z" fill="url(#linear-gradient-2)"/><path d="M64.09,27.21l2.25,3.09H65l-2.08-3h-.2v3h-1.1V23.06h1.29A3.25,3.25,0,0,1,65,23.6a2,2,0,0,1,.7,1.59,2,2,0,0,1-.44,1.32A2,2,0,0,1,64.09,27.21Zm-1.37-.83h.35c1,0,1.56-.39,1.56-1.18s-.5-1.11-1.52-1.11h-.39Z" fill="url(#linear-gradient-2)"/><path d="M66.91,26.65A3.55,3.55,0,0,1,68,24a3.84,3.84,0,0,1,5.37,0,3.63,3.63,0,0,1,1.11,2.66,3.55,3.55,0,0,1-1.12,2.65,3.86,3.86,0,0,1-5.25.12A3.53,3.53,0,0,1,66.91,26.65Zm1.11,0a2.72,2.72,0,0,0,2.67,2.75,2.75,2.75,0,0,0,2-4.67A2.7,2.7,0,0,0,68,26.66Z" fill="url(#linear-gradient-2)"/><path d="M75.54,26.65A3.55,3.55,0,0,1,76.67,24a3.73,3.73,0,0,1,2.7-1.09,3.79,3.79,0,0,1,3.79,3.76A3.56,3.56,0,0,1,82,29.34a3.86,3.86,0,0,1-5.25.12A3.53,3.53,0,0,1,75.54,26.65Zm1.11,0a2.71,2.71,0,0,0,2.68,2.75,2.75,2.75,0,0,0,1.94-4.67A2.62,2.62,0,0,0,79.35,24a2.65,2.65,0,0,0-1.92.79A2.61,2.61,0,0,0,76.65,26.66Z" fill="url(#linear-gradient-2)"/><path d="M84.28,30.3l1.54-7.78,2.5,5.62,2.59-5.62,1.37,7.78H91.16l-.71-4.37-2.15,4.7-2.1-4.7-.78,4.37Z" fill="url(#linear-gradient-2)"/><path d="M38.22,19.29l1.83,2.52H39l-1.69-2.42h-.16v2.42h-.89V15.9h1a2.59,2.59,0,0,1,1.7.44,1.63,1.63,0,0,1,.57,1.29,1.68,1.68,0,0,1-.36,1.08A1.53,1.53,0,0,1,38.22,19.29Zm-1.11-.68h.29q1.26,0,1.26-1c0-.61-.41-.91-1.23-.91h-.32Z" fill="#4b3521"/><path d="M41.13,18.83a2.92,2.92,0,0,1,.92-2.15,3,3,0,0,1,2.19-.89,3.09,3.09,0,0,1,3.08,3.07A2.91,2.91,0,0,1,46.41,21a3.07,3.07,0,0,1-2.21.89,3,3,0,0,1-2.06-.79A2.92,2.92,0,0,1,41.13,18.83Zm.91,0a2.2,2.2,0,0,0,2.17,2.25,2.2,2.2,0,0,0,2.21-2.23,2.19,2.19,0,0,0-.63-1.59,2.09,2.09,0,0,0-1.56-.64A2.17,2.17,0,0,0,42,18.84Z" fill="#4b3521"/><path d="M50,15.9v3.56a2,2,0,0,0,.24,1.12,1.34,1.34,0,0,0,2.1,0,1.91,1.91,0,0,0,.25-1.12V15.9h.89v3.81a2.14,2.14,0,0,1-2.19,2.21,2.11,2.11,0,0,1-1.6-.67,2.14,2.14,0,0,1-.59-1.54V15.9Z" fill="#4b3521"/><path d="M55.48,21.81V15.5L59.8,20V15.9h.89v6.28l-4.32-4.51v4.14Z" fill="#4b3521"/><path d="M62.73,21.81V15.9H64a4.83,4.83,0,0,1,1.41.17,2.66,2.66,0,0,1,1,.59,2.84,2.84,0,0,1,.91,2.2,2.77,2.77,0,0,1-1,2.2,2.84,2.84,0,0,1-1,.59,4.55,4.55,0,0,1-1.39.16Zm.89-.83H64a3.47,3.47,0,0,0,1-.13,1.9,1.9,0,0,0,.72-.43,2,2,0,0,0,.66-1.56,2,2,0,0,0-.65-1.58A2.47,2.47,0,0,0,64,16.74h-.4Z" fill="#4b3521"/><path d="M70.48,16.74v5.07h-.9V16.74H68.22V15.9h3.61v.84Z" fill="#4b3521"/><path d="M76.4,20.38H73.87l-.66,1.43h-1l2.93-6.28L78,21.81H77ZM76,19.54l-.88-2-.92,2Z" fill="#4b3521"/><path d="M79.36,21.81V15.9h.89a4,4,0,0,1,1,.09,1.38,1.38,0,0,1,.6.31,1.61,1.61,0,0,1,.39.56,1.72,1.72,0,0,1,.15.69,1.4,1.4,0,0,1-.48,1.08,1.49,1.49,0,0,1,.74.56,1.65,1.65,0,0,1,.28.93,1.57,1.57,0,0,1-.5,1.17,1.44,1.44,0,0,1-.66.41,3.62,3.62,0,0,1-1,.11Zm.89-3.37h.28a1,1,0,0,0,.73-.22.85.85,0,0,0,.24-.65.83.83,0,0,0-.24-.64,1,1,0,0,0-.69-.21h-.32Zm0,2.54h.56a1.37,1.37,0,0,0,.89-.24.88.88,0,0,0,0-1.3,1.51,1.51,0,0,0-1-.25h-.46Z" fill="#4b3521"/><path d="M85.52,15.9V21h1.73v.83H84.62V15.9Z" fill="#4b3521"/><path d="M92,16.74H89.61v1.42h2.31V19H89.61v2H92v.83H88.72V15.9H92Z" fill="#4b3521"/><text transform="translate(45.74 51.58)" font-size="15.95" fill="#049eda" font-family="Futura-Medium, Futura" font-weight="500">X</text><text transform="translate(12.57 71.04)" font-size="21.27" fill="#1d1d1b" font-family="ArialMT, Arial">NeurIPS</text><text transform="translate(26.89 84.84)" font-size="15.95" fill="#1d1d1b" font-family="Arial-BoldMT, Arial" font-weight="700">2 0 2 1</text></svg>