<svg id="Layer_2" data-name="Layer 2" xmlns="http://www.w3.org/2000/svg" viewBox="0 0 400 400"><path d="M80,134.82a6.23,6.23,0,1,0-8.75,0,19.36,19.36,0,0,0-13,9.56L59,144c.69-.34,1.37-.66,2.06-.95a37.2,37.2,0,0,1,23.42-1.87c.89.22,1.78.47,2.65.76l.44.14.5.18.36.12c.6.22,1.19.46,1.78.71l.33.14c.83.36,1.65.75,2.45,1.17A19.42,19.42,0,0,0,80,134.82Z" fill="#30a6c4"/><path d="M36.6,160.39a6.23,6.23,0,1,0-2.71,8.31A19.42,19.42,0,0,0,39,184c-.05-.29-.1-.59-.14-.89-.11-.75-.2-1.5-.26-2.25A37.13,37.13,0,0,1,44,158.06c.48-.79,1-1.55,1.53-2.3l.28-.37.32-.42.23-.3c.39-.5.8-1,1.22-1.48l.24-.27c.6-.68,1.22-1.33,1.87-2A19.41,19.41,0,0,0,36.6,160.39Z" fill="#30a6c4"/><path d="M47.51,209.55a6.23,6.23,0,1,0,7.07,5.14,19.39,19.39,0,0,0,16.16-.08c-.3-.05-.6-.09-.89-.15-.75-.12-1.49-.27-2.22-.44a37.16,37.16,0,0,1-20-12.25c-.6-.7-1.17-1.42-1.71-2.17l-.27-.37-.3-.44-.22-.32c-.35-.52-.7-1.06-1-1.61-.07-.1-.13-.21-.19-.31-.46-.78-.89-1.57-1.29-2.39A19.43,19.43,0,0,0,47.51,209.55Z" fill="#30a6c4"/><path d="M97.64,214.36a6.16,6.16,0,0,0,1.1,4.67,6.22,6.22,0,1,0,6-9.81,19.39,19.39,0,0,0,4.92-15.39c-.14.27-.27.54-.41.8-.36.68-.72,1.34-1.11,2a37.16,37.16,0,0,1-17.85,15.27c-.85.35-1.71.67-2.59,1l-.44.14-.51.16-.36.1c-.61.18-1.23.34-1.85.48l-.36.08c-.88.2-1.77.36-2.66.49A19.4,19.4,0,0,0,97.64,214.36Z" fill="#30a6c4"/><path d="M117.7,168.17a6.22,6.22,0,1,0-2.7-8.32,19.38,19.38,0,0,0-13.12-9.43l.64.64c.53.55,1,1.1,1.54,1.67a37.21,37.21,0,0,1,9,21.69c.07.92.1,1.84.1,2.76v.46c0,.18,0,.35,0,.53s0,.25,0,.38c0,.64-.06,1.27-.12,1.91,0,.12,0,.24,0,.36-.08.9-.2,1.8-.35,2.69A19.41,19.41,0,0,0,117.7,168.17Z" fill="#30a6c4"/><path d="M328.35,133.4a6.23,6.23,0,1,0-8.74,0,19.42,19.42,0,0,0-13,9.57c.27-.15.54-.28.81-.41.68-.34,1.37-.66,2.06-.95a37.17,37.17,0,0,1,23.41-1.87c.9.22,1.78.47,2.66.76l.43.14.51.18.35.12c.6.22,1.2.46,1.78.71l.34.14c.83.36,1.64.75,2.44,1.17A19.42,19.42,0,0,0,328.35,133.4Z" fill="#52b195"/><path d="M285.28,193.82a6.17,6.17,0,0,0-4.76.61,6.23,6.23,0,1,0,9.14,7,19.36,19.36,0,0,0,14.79,6.5l-.76-.49c-.63-.42-1.25-.86-1.85-1.31a37.2,37.2,0,0,1-13.32-19.34c-.26-.89-.49-1.78-.68-2.68l-.09-.45c0-.17-.07-.35-.1-.53s0-.24-.07-.37c-.11-.62-.2-1.26-.28-1.89,0-.12,0-.24,0-.36q-.17-1.35-.21-2.7A19.43,19.43,0,0,0,285.28,193.82Z" fill="#52b195"/><path d="M359.14,200.91a6.22,6.22,0,1,0,9.13-7,6.17,6.17,0,0,0-4.76-.61,19.35,19.35,0,0,0-1.77-16.06c0,.3,0,.6-.05.9,0,.76-.11,1.51-.21,2.26a37.18,37.18,0,0,1-10.08,21.21q-1,1-2,1.92l-.35.3-.4.36-.29.24c-.49.41-1,.81-1.5,1.19l-.29.22c-.73.53-1.47,1-2.24,1.53A19.44,19.44,0,0,0,359.14,200.91Z" fill="#52b195"/><path d="M281.39,281.2a6.22,6.22,0,1,0-8.74,0,19.36,19.36,0,0,0-13,9.57c.26-.15.53-.28.8-.41.68-.35,1.37-.66,2.06-.95a37.17,37.17,0,0,1,23.41-1.87c.9.22,1.78.47,2.66.75l.44.15.5.17.36.13c.6.22,1.19.45,1.78.7l.33.15c.83.36,1.64.75,2.44,1.17A19.36,19.36,0,0,0,281.39,281.2Z" fill="#5fb679"/><path d="M238,306.77a6.22,6.22,0,1,0-7.48,8.71,6.16,6.16,0,0,0,4.78-.39,19.38,19.38,0,0,0,5.07,15.34c0-.3-.1-.59-.14-.89-.11-.75-.2-1.5-.26-2.25a37.18,37.18,0,0,1,5.45-22.85c.49-.78,1-1.54,1.54-2.29l.27-.37.33-.43a3.25,3.25,0,0,1,.23-.29c.39-.51.8-1,1.22-1.48a2.91,2.91,0,0,1,.24-.27c.59-.68,1.22-1.33,1.86-2A19.34,19.34,0,0,0,238,306.77Z" fill="#5fb679"/><path d="M248.93,355.93a6.23,6.23,0,1,0,7.07,5.14,19.4,19.4,0,0,0,16.16-.08l-.89-.14c-.76-.12-1.5-.27-2.23-.44a37.26,37.26,0,0,1-20-12.25c-.59-.7-1.16-1.43-1.7-2.17l-.27-.38c-.11-.14-.21-.29-.31-.44l-.21-.31c-.35-.53-.7-1.07-1-1.61l-.18-.32c-.46-.77-.89-1.57-1.29-2.38A19.41,19.41,0,0,0,248.93,355.93Z" fill="#5fb679"/><path d="M299.05,360.75a6.23,6.23,0,1,0,7.08-5.14,19.38,19.38,0,0,0,4.91-15.4c-.13.28-.26.55-.41.81q-.53,1-1.11,2a37.19,37.19,0,0,1-17.84,15.27c-.85.35-1.71.67-2.59,1l-.44.14-.51.16-.36.1c-.62.18-1.23.34-1.86.48l-.35.08c-.88.2-1.77.36-2.67.49A19.45,19.45,0,0,0,299.05,360.75Z" fill="#5fb679"/><path d="M319.12,314.56a6.22,6.22,0,1,0,.94-11.45,6.23,6.23,0,0,0-3.64,3.13,19.42,19.42,0,0,0-13.12-9.43l.64.64c.53.54,1.05,1.1,1.53,1.67a37.2,37.2,0,0,1,9,21.69c.07.91.1,1.83.1,2.76V324c0,.18,0,.36,0,.54s0,.25,0,.38c0,.63-.06,1.27-.11,1.91,0,.12,0,.24,0,.36-.08.9-.2,1.79-.35,2.68A19.42,19.42,0,0,0,319.12,314.56Z" fill="#5fb679"/><path d="M126.85,281.33a6.23,6.23,0,1,0-8.75,0,19.39,19.39,0,0,0-13,9.56l.8-.41c.68-.34,1.37-.65,2.06-.94a37.17,37.17,0,0,1,23.41-1.87c.9.22,1.78.47,2.66.75l.44.15.5.17.36.13c.6.22,1.19.45,1.78.7l.33.15c.83.35,1.64.75,2.44,1.17A19.36,19.36,0,0,0,126.85,281.33Z" fill="#049eda"/><path d="M80.11,319.88a6.23,6.23,0,1,0,0,8.74,19.42,19.42,0,0,0,9.56,13c-.14-.27-.28-.54-.41-.81-.34-.68-.65-1.37-.94-2.06a37.17,37.17,0,0,1-1.87-23.41c.22-.9.47-1.78.75-2.66l.15-.43c.05-.17.11-.34.17-.51s.09-.24.13-.35c.22-.6.45-1.2.7-1.78l.15-.34c.35-.83.75-1.64,1.17-2.44A19.39,19.39,0,0,0,80.11,319.88Z" fill="#049eda"/><path d="M118.66,366.61a6.23,6.23,0,1,0,8.74,0,19.39,19.39,0,0,0,13-9.56l-.81.41c-.68.34-1.37.66-2.06,1a37.24,37.24,0,0,1-23.41,1.87c-.9-.22-1.78-.47-2.66-.76l-.43-.14-.51-.18-.35-.13c-.6-.21-1.2-.45-1.78-.7l-.34-.14c-.83-.36-1.64-.75-2.44-1.17A19.42,19.42,0,0,0,118.66,366.61Z" fill="#049eda"/><path d="M165.39,328.07a6.23,6.23,0,1,0,0-8.75,19.36,19.36,0,0,0-9.56-13c.14.26.28.53.41.8.34.68.66,1.37.95,2.06a37.24,37.24,0,0,1,1.87,23.41c-.22.9-.47,1.78-.76,2.66,0,.14-.09.29-.14.44l-.18.5c0,.12-.08.24-.13.36-.21.6-.45,1.19-.7,1.78,0,.11-.09.22-.14.33-.36.83-.75,1.64-1.17,2.44A19.39,19.39,0,0,0,165.39,328.07Z" fill="#049eda"/><path d="M204.18,182a6.23,6.23,0,1,0-8.75,0,19.39,19.39,0,0,0-13,9.56l.81-.41c.68-.34,1.36-.66,2.05-.94a37.14,37.14,0,0,1,23.42-1.87c.89.21,1.78.46,2.65.75l.44.15.51.17.35.13c.6.22,1.19.45,1.78.7l.34.15c.82.35,1.64.74,2.44,1.17A19.42,19.42,0,0,0,204.18,182Z" fill="#049eda"/><path d="M160.8,207.56a6.22,6.22,0,1,0-2.7,8.32,19.34,19.34,0,0,0,5.07,15.34c-.06-.3-.11-.6-.15-.89-.11-.76-.2-1.51-.26-2.25a37.17,37.17,0,0,1,5.46-22.85c.48-.78,1-1.55,1.54-2.29.08-.13.18-.25.27-.37s.21-.29.32-.43l.23-.3c.39-.5.8-1,1.22-1.47l.24-.28c.6-.67,1.22-1.33,1.87-2A19.41,19.41,0,0,0,160.8,207.56Z" fill="#049eda"/><path d="M171.71,256.72a6.22,6.22,0,1,0,7.08,5.14,19.37,19.37,0,0,0,16.15-.08l-.89-.14c-.75-.13-1.49-.27-2.22-.45a37.1,37.1,0,0,1-20-12.25c-.6-.7-1.17-1.42-1.71-2.17l-.26-.37c-.11-.14-.21-.29-.31-.44l-.21-.31c-.36-.53-.7-1.07-1-1.62l-.19-.31c-.46-.78-.88-1.57-1.28-2.38A19.35,19.35,0,0,0,171.71,256.72Z" fill="#049eda"/><path d="M221.84,261.53a6.22,6.22,0,1,0,7.07-5.14A19.38,19.38,0,0,0,233.83,241c-.13.27-.27.54-.41.81-.35.67-.72,1.33-1.11,2a37.25,37.25,0,0,1-17.84,15.28c-.86.35-1.72.66-2.6.95l-.43.14-.52.15-.36.11c-.61.17-1.23.33-1.85.48l-.36.07c-.88.2-1.77.37-2.66.49A19.36,19.36,0,0,0,221.84,261.53Z" fill="#049eda"/><path d="M241.9,215.35a6.23,6.23,0,1,0-2.7-8.32,19.38,19.38,0,0,0-13.12-9.43l.64.64c.54.54,1.05,1.09,1.54,1.66a37.17,37.17,0,0,1,9,21.69c.07.92.11,1.84.1,2.76,0,.15,0,.31,0,.46s0,.36,0,.54,0,.25,0,.37c0,.64-.06,1.28-.12,1.91l0,.37c-.09.89-.21,1.79-.36,2.68A19.4,19.4,0,0,0,241.9,215.35Z" fill="#049eda"/><path d="M204.37,47a6.22,6.22,0,1,0-8.74,0,19.36,19.36,0,0,0-13,9.56l.8-.41c.68-.34,1.37-.65,2.06-.94a37.17,37.17,0,0,1,23.41-1.87c.9.22,1.78.47,2.66.75l.43.15.51.17.36.13c.59.22,1.19.45,1.78.7l.33.15c.83.36,1.64.75,2.44,1.17A19.39,19.39,0,0,0,204.37,47Z" fill="#41abae"/><path d="M204.09,47a6.22,6.22,0,1,0-8.74,0,19.42,19.42,0,0,0-13,9.56l.81-.41c.68-.34,1.37-.65,2.06-.94a37.17,37.17,0,0,1,23.41-1.87c.9.22,1.78.47,2.66.75l.43.15.51.17.36.13c.59.22,1.19.45,1.78.7l.33.15c.83.36,1.64.75,2.44,1.17A19.39,19.39,0,0,0,204.09,47Z" fill="#41abae"/><path d="M157.36,85.58a6.23,6.23,0,1,0,0,8.74,19.42,19.42,0,0,0,9.56,13c-.14-.27-.28-.54-.41-.81-.34-.68-.66-1.37-.94-2.06a37.1,37.1,0,0,1-1.87-23.41c.21-.9.46-1.78.75-2.66l.15-.43c.05-.17.11-.34.17-.51s.08-.23.13-.35c.22-.6.45-1.2.7-1.78l.15-.34c.35-.83.74-1.64,1.16-2.44A19.42,19.42,0,0,0,157.36,85.58Z" fill="#41abae"/><path d="M195.91,132.31a6.22,6.22,0,1,0,8.74,0,19.39,19.39,0,0,0,13-9.56l-.81.41c-.68.34-1.37.66-2.06,1A37.24,37.24,0,0,1,191.4,126c-.9-.22-1.78-.47-2.66-.76l-.43-.14-.51-.18-.36-.13c-.59-.21-1.19-.45-1.78-.7l-.33-.14c-.83-.36-1.64-.75-2.44-1.17A19.42,19.42,0,0,0,195.91,132.31Z" fill="#41abae"/><path d="M242.64,93.77a6.23,6.23,0,1,0,0-8.75,19.39,19.39,0,0,0-9.56-13c.14.26.28.53.41.8.34.68.66,1.37.94,2.06a37.1,37.1,0,0,1,1.87,23.41c-.21.9-.46,1.78-.75,2.66l-.15.44c-.05.17-.11.33-.17.5s-.08.24-.13.36c-.22.6-.45,1.19-.7,1.78l-.15.33c-.35.83-.74,1.64-1.16,2.44A19.39,19.39,0,0,0,242.64,93.77Z" fill="#41abae"/><polygon points="192.62 163.25 196.37 163.25 200.12 157.25 203.87 163.25 207.62 163.25 200.12 151.25 192.62 163.25" fill="#4b3521"/><polygon points="139.01 212.64 140.17 209.07 135.62 203.65 142.49 201.94 143.64 198.37 129.91 201.8 139.01 212.64" fill="#4b3521"/><polygon points="169.41 278.89 166.38 276.68 159.82 279.33 160.31 272.28 157.28 270.07 156.29 284.19 169.41 278.89" fill="#4b3521"/><polygon points="241.82 270.44 238.78 272.65 239.28 279.7 232.72 277.06 229.68 279.26 242.81 284.56 241.82 270.44" fill="#4b3521"/><polygon points="256.16 198.97 257.32 202.54 264.18 204.25 259.64 209.67 260.8 213.24 269.89 202.4 256.16 198.97" fill="#4b3521"/><circle cx="200.12" cy="89.39" r="34.49" fill="#fff"/><circle cx="75.85" cy="177.28" r="34.49" fill="#fff"/><circle cx="324.15" cy="175.96" r="34.49" fill="#fff"/><circle cx="200.28" cy="224.54" r="34.49" fill="#fff"/><circle cx="122.47" cy="323.25" r="34.49" fill="#fff"/><circle cx="277.41" cy="323.69" r="34.49" fill="#fff"/></svg>