<svg id="Layer_2" data-name="Layer 2" xmlns="http://www.w3.org/2000/svg" viewBox="0 0 400 400"><circle cx="277.33" cy="323.69" r="34.49" fill="#fff"/><circle cx="122.27" cy="323.69" r="34.49" fill="#fff"/><circle cx="75.71" cy="177.28" r="34.49" fill="#fff"/><circle cx="324.29" cy="176.42" r="34.49" fill="#fff"/><circle cx="200.28" cy="89.67" r="34.49" fill="#fff"/><path d="M41,152.33a6.22,6.22,0,1,0-9.13,7,6.17,6.17,0,0,0,4.76.61A19.35,19.35,0,0,0,38.4,176c0-.3,0-.6.05-.9,0-.76.11-1.51.2-2.25a37.25,37.25,0,0,1,10.09-21.22q1-1,2-1.92l.35-.3.4-.36.29-.24c.49-.41,1-.81,1.5-1.19l.29-.22c.72-.53,1.47-1,2.23-1.53A19.43,19.43,0,0,0,41,152.33Z" fill="#4b3521"/><path d="M36.63,194.94a6.22,6.22,0,0,0-7,9.11A6.22,6.22,0,0,0,41,202.51,19.41,19.41,0,0,0,55.79,209l-.76-.5c-.63-.42-1.25-.85-1.84-1.31a37.14,37.14,0,0,1-13.33-19.34c-.26-.88-.48-1.77-.67-2.68,0-.14-.07-.29-.1-.44s-.07-.35-.1-.53-.05-.25-.07-.37c-.11-.63-.2-1.26-.28-1.9,0-.11,0-.24,0-.36q-.15-1.34-.21-2.7A19.43,19.43,0,0,0,36.63,194.94Z" fill="#4b3521"/><path d="M71.34,220a6.14,6.14,0,0,0-1.85,4.42,6.22,6.22,0,1,0,12.44,0A6.14,6.14,0,0,0,80.08,220a19.42,19.42,0,0,0,13-9.57c-.27.15-.54.28-.81.41-.68.34-1.37.66-2.06.95a37.17,37.17,0,0,1-23.41,1.87c-.9-.22-1.78-.47-2.66-.76l-.43-.14a5.17,5.17,0,0,1-.51-.18l-.36-.12c-.59-.22-1.19-.46-1.78-.71l-.33-.14c-.83-.36-1.64-.75-2.44-1.17A19.42,19.42,0,0,0,71.34,220Z" fill="#4b3521"/><path d="M110.42,202.51a6.22,6.22,0,1,0,4.37-7.57A19.36,19.36,0,0,0,113,178.88c0,.3,0,.6,0,.9,0,.76-.12,1.51-.21,2.26a37.25,37.25,0,0,1-10.09,21.21c-.64.66-1.3,1.31-2,1.92l-.35.31-.4.35-.29.24c-.49.41-1,.81-1.5,1.19l-.29.22c-.72.54-1.47,1.05-2.23,1.53A19.42,19.42,0,0,0,110.42,202.51Z" fill="#4b3521"/><path d="M114.79,159.91a6.23,6.23,0,1,0-4.37-7.58,19.35,19.35,0,0,0-14.79-6.49l.76.49c.63.42,1.25.85,1.85,1.31A37.18,37.18,0,0,1,111.56,167c.26.88.49,1.78.68,2.68l.09.45c0,.17.07.35.1.52s0,.25.07.37c.11.63.2,1.26.28,1.9,0,.12,0,.24,0,.36q.15,1.34.21,2.7A19.4,19.4,0,0,0,114.79,159.91Z" fill="#4b3521"/><path d="M242.62,298.67a6.15,6.15,0,0,0-2.91-3.82,6.22,6.22,0,1,0-1.46,11.39A19.36,19.36,0,0,0,240,322.3c0-.3,0-.6,0-.9,0-.76.11-1.52.21-2.26a37.1,37.1,0,0,1,10.09-21.21q.94-1,2-1.92l.34-.31.4-.35.29-.24c.49-.41,1-.81,1.5-1.19l.29-.22c.73-.54,1.47-1.05,2.24-1.53A19.4,19.4,0,0,0,242.62,298.67Z" fill="#4b3521"/><path d="M238.25,341.27a6.22,6.22,0,1,0,4.37,7.58,19.39,19.39,0,0,0,14.79,6.49l-.75-.49c-.64-.42-1.26-.86-1.85-1.31a37.22,37.22,0,0,1-13.33-19.34c-.26-.89-.48-1.78-.67-2.68a3.58,3.58,0,0,1-.09-.45c0-.17-.08-.35-.11-.53l-.06-.37c-.11-.62-.21-1.26-.28-1.89,0-.12,0-.24-.05-.36-.1-.9-.17-1.8-.2-2.7A19.35,19.35,0,0,0,238.25,341.27Z" fill="#4b3521"/><path d="M273,366.36a6.23,6.23,0,1,0,8.74,0,19.42,19.42,0,0,0,13-9.56l-.81.41c-.68.34-1.37.66-2.06,1A37.24,37.24,0,0,1,268.45,360c-.89-.22-1.78-.47-2.66-.76l-.43-.14-.51-.18-.35-.13c-.6-.21-1.2-.45-1.78-.7l-.34-.14c-.82-.36-1.64-.75-2.44-1.17A19.42,19.42,0,0,0,273,366.36Z" fill="#4b3521"/><path d="M312,348.85a6.23,6.23,0,1,0,9.14-7,6.26,6.26,0,0,0-4.76-.61,19.44,19.44,0,0,0-1.77-16.06c0,.31,0,.61,0,.91q-.08,1.14-.21,2.25a37.19,37.19,0,0,1-10.09,21.21c-.63.67-1.29,1.31-2,1.93l-.34.3-.41.35-.29.25c-.48.41-1,.8-1.5,1.19l-.29.21c-.72.54-1.47,1.05-2.23,1.53A19.34,19.34,0,0,0,312,348.85Z" fill="#4b3521"/><path d="M316.42,306.24a6.17,6.17,0,0,0,4.76-.61,6.23,6.23,0,1,0-9.14-7,19.4,19.4,0,0,0-14.79-6.5l.76.49c.63.42,1.25.86,1.85,1.31a37.19,37.19,0,0,1,13.32,19.35c.26.88.49,1.77.68,2.67l.09.45c0,.18.07.35.1.53s.05.24.07.37c.11.63.2,1.26.28,1.89,0,.12,0,.24,0,.36q.17,1.35.21,2.7A19.39,19.39,0,0,0,316.42,306.24Z" fill="#4b3521"/><path d="M80.08,134.82a6.22,6.22,0,1,0-8.74,0,19.33,19.33,0,0,0-13,9.56l.8-.41c.68-.34,1.37-.66,2.06-.95a37.17,37.17,0,0,1,23.41-1.87c.9.22,1.78.47,2.66.76l.43.14.51.18.36.12c.6.22,1.19.46,1.78.71l.33.14c.83.36,1.64.75,2.44,1.17A19.36,19.36,0,0,0,80.08,134.82Z" fill="#5fb679"/><path d="M281.71,281.15a6.23,6.23,0,1,0-8.75,0,19.39,19.39,0,0,0-13,9.56l.8-.41c.68-.34,1.37-.65,2.06-.94a37.2,37.2,0,0,1,23.42-1.87c.89.22,1.78.47,2.65.75l.44.15.5.17.36.13c.6.22,1.19.45,1.78.7l.33.15c.83.35,1.65.75,2.45,1.17A19.42,19.42,0,0,0,281.71,281.15Z" fill="#41abad"/><path d="M289.58,150.87a6.22,6.22,0,1,0-4.37,7.57A19.36,19.36,0,0,0,287,174.5c0-.3,0-.6,0-.9.05-.76.12-1.51.21-2.26a37.25,37.25,0,0,1,10.09-21.21q1-1,2-1.92l.35-.31.4-.35.29-.24c.49-.41,1-.81,1.5-1.19a3.15,3.15,0,0,1,.29-.22c.72-.54,1.47-1.05,2.23-1.53A19.42,19.42,0,0,0,289.58,150.87Z" fill="#4b3521"/><path d="M285.21,193.47a6.22,6.22,0,0,0-7,9.11,6.22,6.22,0,0,0,11.41-1.53,19.35,19.35,0,0,0,14.79,6.49l-.76-.49c-.63-.42-1.25-.85-1.85-1.31a37.18,37.18,0,0,1-13.32-19.34c-.26-.88-.49-1.78-.68-2.68l-.09-.45c0-.17-.07-.35-.1-.52s-.05-.25-.07-.38c-.11-.62-.2-1.25-.28-1.89,0-.12,0-.24,0-.36q-.15-1.35-.21-2.7A19.4,19.4,0,0,0,285.21,193.47Z" fill="#4b3521"/><path d="M319.92,218.56a6.22,6.22,0,1,0,8.74,0,19.33,19.33,0,0,0,13-9.56l-.8.41c-.68.34-1.37.66-2.06,1a37.24,37.24,0,0,1-23.41,1.87c-.9-.22-1.78-.47-2.66-.76l-.43-.14-.51-.18-.36-.13c-.6-.21-1.19-.45-1.78-.7l-.33-.14c-.83-.36-1.64-.75-2.44-1.17A19.36,19.36,0,0,0,319.92,218.56Z" fill="#4b3521"/><path d="M359,201.05a6.22,6.22,0,1,0,4.37-7.58,19.34,19.34,0,0,0-1.77-16.05c0,.3,0,.6-.05.9,0,.76-.11,1.51-.2,2.25a37.25,37.25,0,0,1-10.09,21.22q-1,1-2,1.92l-.35.3c-.13.12-.26.24-.4.35l-.29.25c-.49.41-1,.8-1.5,1.19l-.29.21c-.72.54-1.47,1.05-2.23,1.54A19.43,19.43,0,0,0,359,201.05Z" fill="#4b3521"/><path d="M363.37,158.44a6.22,6.22,0,0,0,7-9.11A6.22,6.22,0,0,0,359,150.87a19.41,19.41,0,0,0-14.79-6.5l.76.49c.63.42,1.25.86,1.84,1.31a37.2,37.2,0,0,1,13.33,19.35c.26.88.48,1.77.67,2.67,0,.15.07.3.1.45s.07.35.1.53.05.25.07.37c.11.63.2,1.26.28,1.89,0,.12,0,.24,0,.37q.15,1.33.21,2.7A19.44,19.44,0,0,0,363.37,158.44Z" fill="#4b3521"/><path d="M328.66,133.35a6.22,6.22,0,1,0-8.74,0,19.42,19.42,0,0,0-13,9.57c.27-.15.54-.28.81-.41.68-.34,1.37-.66,2.06-.95a37.17,37.17,0,0,1,23.41-1.87c.9.22,1.78.47,2.66.75l.43.15.51.17.36.13c.59.22,1.19.45,1.78.7l.33.15c.83.36,1.64.75,2.44,1.17A19.39,19.39,0,0,0,328.66,133.35Z" fill="#30a6c4"/><text transform="translate(311.57 190.6)" font-size="37.4" fill="#30a6c4" font-family="Futura-Bold, Futura" font-weight="700">2</text><text transform="translate(264.62 338.4)" font-size="37.4" fill="#41abae" font-family="Futura-Bold, Futura" font-weight="700">3</text><path d="M88,298.67a6.23,6.23,0,1,0-4.38,7.57,19.44,19.44,0,0,0,1.77,16.06c0-.3,0-.6.05-.9,0-.76.12-1.52.21-2.26A37.22,37.22,0,0,1,95.7,297.93q.94-1,2-1.92l.34-.31.41-.35.29-.24c.48-.41,1-.81,1.5-1.19a3.15,3.15,0,0,1,.29-.22c.72-.54,1.47-1.05,2.23-1.53A19.37,19.37,0,0,0,88,298.67Z" fill="#4b3521"/><path d="M83.58,341.27A6.22,6.22,0,1,0,88,348.85a19.38,19.38,0,0,0,14.79,6.49l-.76-.49c-.63-.42-1.25-.86-1.85-1.31A37.2,37.2,0,0,1,86.82,334.2c-.26-.89-.49-1.78-.68-2.68l-.09-.45c0-.17-.07-.35-.1-.53s0-.24-.07-.37c-.11-.62-.2-1.26-.28-1.89,0-.12,0-.24,0-.36q-.16-1.35-.21-2.7A19.39,19.39,0,0,0,83.58,341.27Z" fill="#4b3521"/><path d="M118.29,366.36a6.23,6.23,0,1,0,8.75,0,19.39,19.39,0,0,0,13-9.56l-.8.41c-.68.34-1.37.66-2.06,1A37.27,37.27,0,0,1,113.78,360c-.89-.22-1.78-.47-2.65-.76l-.44-.14-.5-.18-.36-.13c-.6-.21-1.19-.45-1.78-.7l-.33-.14c-.83-.36-1.65-.75-2.45-1.17A19.45,19.45,0,0,0,118.29,366.36Z" fill="#4b3521"/><path d="M157.38,348.85a6.13,6.13,0,0,0,2.91,3.81,6.22,6.22,0,1,0,1.46-11.39A19.36,19.36,0,0,0,160,325.21c0,.31,0,.61,0,.91q-.06,1.14-.21,2.25a37.07,37.07,0,0,1-10.09,21.21c-.63.67-1.29,1.31-2,1.93l-.34.3-.4.35-.29.25c-.49.41-1,.8-1.5,1.19l-.29.21c-.73.54-1.47,1.05-2.24,1.53A19.37,19.37,0,0,0,157.38,348.85Z" fill="#4b3521"/><path d="M161.75,306.24a6.22,6.22,0,1,0-4.37-7.57,19.41,19.41,0,0,0-14.79-6.5l.75.49c.64.42,1.26.86,1.85,1.31a37.2,37.2,0,0,1,13.33,19.35c.26.88.48,1.77.67,2.67a3.58,3.58,0,0,1,.09.45c0,.18.08.35.11.53l.06.37c.11.63.21,1.26.28,1.89,0,.12,0,.24.05.36.1.9.17,1.8.2,2.7A19.35,19.35,0,0,0,161.75,306.24Z" fill="#4b3521"/><path d="M127,281.15a6.23,6.23,0,1,0-8.74,0,19.42,19.42,0,0,0-13,9.56l.81-.41c.68-.34,1.37-.65,2.06-.94a37.17,37.17,0,0,1,23.41-1.87c.89.22,1.78.47,2.66.75l.43.15.51.17.35.13c.6.22,1.2.45,1.78.7l.34.15c.82.35,1.64.75,2.44,1.17A19.39,19.39,0,0,0,127,281.15Z" fill="#51b195"/><text transform="translate(109.95 338.4)" font-size="37.4" fill="#52b195" font-family="Futura-Bold, Futura" font-weight="700">4</text><text transform="translate(63 192.06)" font-size="37.4" fill="#5fb679" font-family="Futura-Bold, Futura" font-weight="700">5</text><path d="M165.29,64.55a6.22,6.22,0,1,0-4.37,7.57,19.36,19.36,0,0,0,1.77,16.06c0-.3,0-.6,0-.9.05-.76.12-1.52.21-2.26A37.22,37.22,0,0,1,173,63.81q1-1,2-1.92c.11-.11.23-.21.35-.31l.4-.35.29-.24c.49-.41,1-.81,1.5-1.19a3.15,3.15,0,0,1,.29-.22c.72-.54,1.47-1,2.23-1.53A19.39,19.39,0,0,0,165.29,64.55Z" fill="#4b3521"/><path d="M160.92,107.15a6.22,6.22,0,1,0,4.37,7.58,19.39,19.39,0,0,0,14.79,6.49l-.76-.49c-.63-.42-1.25-.86-1.84-1.31a37.22,37.22,0,0,1-13.33-19.34c-.26-.89-.49-1.78-.68-2.68l-.09-.45c0-.17-.07-.35-.1-.53s-.05-.24-.07-.37c-.11-.62-.2-1.26-.28-1.89,0-.12,0-.24,0-.36q-.15-1.35-.21-2.7A19.4,19.4,0,0,0,160.92,107.15Z" fill="#4b3521"/><path d="M195.63,132.24a6.22,6.22,0,1,0,8.74,0,19.36,19.36,0,0,0,13-9.56l-.8.41c-.68.34-1.37.66-2.06,1a37.24,37.24,0,0,1-23.41,1.87c-.9-.22-1.78-.47-2.66-.76L188,125l-.51-.18-.36-.13c-.59-.21-1.19-.45-1.78-.7l-.33-.14c-.83-.36-1.64-.75-2.44-1.17A19.42,19.42,0,0,0,195.63,132.24Z" fill="#4b3521"/><path d="M234.71,114.73a6.22,6.22,0,1,0,4.37-7.58,19.36,19.36,0,0,0-1.77-16.06c0,.31,0,.61,0,.91q-.08,1.14-.21,2.25A37.19,37.19,0,0,1,227,115.46c-.64.67-1.3,1.31-2,1.93l-.35.3c-.13.12-.26.24-.4.35l-.29.25c-.49.41-1,.8-1.5,1.19l-.29.21c-.72.54-1.47,1-2.23,1.53A19.37,19.37,0,0,0,234.71,114.73Z" fill="#4b3521"/><path d="M239.08,72.12a6.22,6.22,0,1,0-4.37-7.57,19.41,19.41,0,0,0-14.79-6.5l.76.49c.63.42,1.25.86,1.84,1.31A37.2,37.2,0,0,1,235.85,79.2c.26.88.49,1.77.68,2.67l.09.45c0,.18.07.35.1.53s.05.24.07.37c.11.63.2,1.26.28,1.89,0,.12,0,.24,0,.36q.15,1.35.21,2.7A19.4,19.4,0,0,0,239.08,72.12Z" fill="#4b3521"/><path d="M204.37,47a6.22,6.22,0,1,0-8.74,0,19.36,19.36,0,0,0-13,9.56l.8-.41c.68-.34,1.37-.65,2.06-.94a37.17,37.17,0,0,1,23.41-1.87c.9.22,1.78.47,2.66.75l.43.15.51.17.36.13c.59.22,1.19.45,1.78.7l.33.15c.83.36,1.64.75,2.44,1.17A19.39,19.39,0,0,0,204.37,47Z" fill="#049eda"/><text transform="translate(187.28 104.28)" font-size="37.4" fill="#049eda" font-family="Futura-Bold, Futura" font-weight="700">1</text><text transform="translate(174.43 33.1) rotate(-18.89)" font-size="12.76" fill="#049eda" font-family="Futura-Medium, Futura" font-weight="500">M</text><text transform="translate(185.4 29.49) rotate(-10.49)" font-size="12.76" fill="#049eda" font-family="Futura-Medium, Futura" font-weight="500">E</text><text transform="matrix(1, -0.05, 0.05, 1, 191.86, 28.13)" font-size="12.76" fill="#049eda" font-family="Futura-Medium, Futura" font-weight="500">N</text><text transform="translate(202.03 27.75) rotate(4.4)" font-size="12.76" fill="#049eda" font-family="Futura-Medium, Futura" font-weight="500">T</text><text transform="matrix(0.98, 0.2, -0.2, 0.98, 207.29, 27.93)" font-size="12.76" fill="#049eda" font-family="Futura-Medium, Futura" font-weight="500">O</text><text transform="translate(217.77 30.18) rotate(19.93)" font-size="12.76" fill="#049eda" font-family="Futura-Medium, Futura" font-weight="500">R</text><text transform="translate(158.01 147.44) rotate(33.48)" font-size="12.76" fill="#4b3521" font-family="Futura-Medium, Futura" font-weight="500">P</text><text transform="translate(163.6 151.23) rotate(27.06)" font-size="12.76" fill="#4b3521" font-family="Futura-Medium, Futura" font-weight="500">A</text><text transform="translate(172.6 155.72) rotate(19.67)" font-size="12.76" fill="#4b3521" font-family="Futura-Medium, Futura" font-weight="500">R</text><text transform="translate(180.23 158.38) rotate(13.76)" font-size="12.76" fill="#4b3521" font-family="Futura-Medium, Futura" font-weight="500">T</text><text transform="matrix(0.99, 0.16, -0.16, 0.99, 186.58, 159.88)" font-size="12.76" fill="#4b3521" font-family="Futura-Medium, Futura" font-weight="500">I</text><text transform="translate(190.72 160.67) rotate(4.03)" font-size="12.76" fill="#4b3521" font-family="Futura-Medium, Futura" font-weight="500">C</text><text transform="translate(200.1 161.19) rotate(-1.34)" font-size="12.76" fill="#4b3521" font-family="Futura-Medium, Futura" font-weight="500">I</text><text transform="translate(204.24 161.14) rotate(-5.87)" font-size="12.76" fill="#4b3521" font-family="Futura-Medium, Futura" font-weight="500">P</text><text transform="matrix(0.98, -0.21, 0.21, 0.98, 210.97, 160.53)" font-size="12.76" fill="#4b3521" font-family="Futura-Medium, Futura" font-weight="500">A</text><text transform="matrix(0.93, -0.36, 0.36, 0.93, 220.94, 158.35)" font-size="12.76" fill="#4b3521" font-family="Futura-Medium, Futura" font-weight="500">N</text><text transform="translate(231.49 154.09) rotate(-28.36)" font-size="12.76" fill="#4b3521" font-family="Futura-Medium, Futura" font-weight="500">T</text><text transform="matrix(0.83, -0.56, 0.56, 0.83, 237.34, 150.94)" font-size="12.76" fill="#4b3521" font-family="Futura-Medium, Futura" font-weight="500">S</text><polygon points="69.38 271.96 74.44 270.31 76.86 260.58 84.55 267.03 89.6 265.38 74.23 252.49 69.38 271.96" fill="#4b3521"/><polygon points="208.51 360.68 208.51 355.36 200 350.05 208.51 344.73 208.51 339.42 191.5 350.05 208.51 360.68" fill="#4b3521"/><polygon points="335.88 255.78 330.82 254.13 323.14 260.58 320.71 250.85 315.66 249.21 320.51 268.67 335.88 255.78" fill="#4b3521"/><polygon points="275.47 102.22 272.35 106.52 276.11 115.82 266.1 115.12 262.98 119.42 282.99 120.82 275.47 102.22" fill="#4b3521"/></svg>